# This file uses centimeters as units for non-parametric coordinates.

mtllib Degrau_4.mtl
g default
v 3.019222 -0.096205 -0.586525
v 3.056167 -0.096205 0.415216
v 3.019222 0.174825 -0.586525
v 3.056167 0.174825 0.415216
v -3.041798 0.174825 -0.362995
v -3.004853 0.174825 0.638744
v -3.041798 -0.096205 -0.362995
v -3.004853 -0.096205 0.638744
v 0.992506 0.174825 0.410354
v 0.992504 -0.096205 0.410353
v 1.194953 -0.096205 -0.395718
v 1.194953 0.174825 -0.395718
v -0.075028 0.174825 0.532863
v -0.075028 -0.096205 0.532863
v -0.439839 -0.096205 -0.461125
v -0.439839 0.174825 -0.461125
vt 0.072195 0.752233
vt 0.085454 0.752324
vt 0.085370 0.800863
vt 0.072095 0.800840
vt 0.175323 0.759162
vt 0.187283 0.798989
vt 0.382742 0.751558
vt 0.396013 0.751549
vt 0.396143 0.800760
vt 0.382881 0.800790
vt 0.175485 0.851978
vt 0.087517 0.862775
vt 0.085492 0.813888
vt 0.187347 0.812665
vt 0.175276 0.745812
vt 0.086248 0.739174
vt 0.239725 0.800300
vt 0.239627 0.813322
vt 0.254485 0.862766
vt 0.255036 0.738290
vt 0.255480 0.751509
vt 0.382810 0.814122
vt 0.382516 0.863191
vt 0.382679 0.738285
vn 0.124699 -0.950020 -0.286202
vn 0.124699 0.950020 -0.286202
vn 0.149083 0.941226 0.303096
vn 0.149083 -0.941226 0.303096
vn 0.124699 0.950020 -0.286202
vn -0.010198 0.959569 -0.281289
vn 0.010303 0.961611 0.274224
vn 0.149083 0.941226 0.303096
vn -0.103400 0.964966 -0.241141
vn -0.103400 -0.964966 -0.241141
vn -0.083558 -0.957313 0.276714
vn -0.083558 0.957313 0.276714
vn -0.010197 -0.959569 -0.281289
vn 0.124699 -0.950020 -0.286202
vn 0.149083 -0.941226 0.303096
vn 0.010303 -0.961611 0.274223
vn 0.149083 -0.941226 0.303096
vn 0.149083 0.941226 0.303096
vn 0.010303 0.961611 0.274224
vn 0.010303 -0.961611 0.274223
vn -0.010197 -0.959569 -0.281289
vn -0.010198 0.959569 -0.281289
vn 0.124699 0.950020 -0.286202
vn 0.124699 -0.950020 -0.286202
vn 0.010303 -0.961611 0.274223
vn 0.010303 0.961611 0.274224
vn 0.016361 0.957982 0.286360
vn 0.016361 -0.957982 0.286360
vn -0.002014 -0.965397 -0.260779
vn -0.010197 -0.959569 -0.281289
vn 0.010303 -0.961611 0.274223
vn 0.016361 -0.957982 0.286360
vn -0.002014 -0.965397 -0.260779
vn -0.002014 0.965397 -0.260778
vn -0.010198 0.959569 -0.281289
vn -0.010197 -0.959569 -0.281289
vn 0.010303 0.961611 0.274224
vn -0.010198 0.959569 -0.281289
vn -0.002014 0.965397 -0.260778
vn 0.016361 0.957982 0.286360
vn 0.016361 -0.957982 0.286360
vn 0.016361 0.957982 0.286360
vn -0.083558 0.957313 0.276714
vn -0.083558 -0.957313 0.276714
vn -0.103400 -0.964966 -0.241141
vn -0.002014 -0.965397 -0.260779
vn 0.016361 -0.957982 0.286360
vn -0.083558 -0.957313 0.276714
vn -0.103400 -0.964966 -0.241141
vn -0.103400 0.964966 -0.241141
vn -0.002014 0.965397 -0.260778
vn -0.002014 -0.965397 -0.260779
vn 0.016361 0.957982 0.286360
vn -0.002014 0.965397 -0.260778
vn -0.103400 0.964966 -0.241141
vn -0.083558 0.957313 0.276714
s off
g Degrau_4
usemtl Escadas_Low:_initialShadingGroup4
f 1/1/1 3/2/2 4/3/3 2/4/4
f 3/2/5 12/5/6 9/6/7 4/3/8
f 5/7/9 7/8/10 8/9/11 6/10/12
f 11/11/13 1/12/14 2/13/15 10/14/16
f 2/13/17 4/3/18 9/6/19 10/14/20
f 11/15/21 12/5/22 3/2/23 1/16/24
f 10/14/25 9/6/26 13/17/27 14/18/28
f 15/19/29 11/11/30 10/14/31 14/18/32
f 15/20/33 16/21/34 12/5/35 11/15/36
f 9/6/37 12/5/38 16/21/39 13/17/40
f 14/18/41 13/17/42 6/10/43 8/22/44
f 7/23/45 15/19/46 14/18/47 8/22/48
f 7/24/49 5/7/50 16/21/51 15/20/52
f 13/17/53 16/21/54 5/7/55 6/10/56
