# This file uses centimeters as units for non-parametric coordinates.

mtllib Degrau_6.mtl
g default
v 3.019222 -0.121803 -0.585813
v 3.056167 -0.121803 0.415928
v 3.019222 0.149227 -0.585813
v 3.056167 0.149227 0.415928
v -3.041798 0.149227 -0.362283
v -3.004853 0.149227 0.639456
v -3.041798 -0.121803 -0.362283
v -3.004853 -0.121803 0.639456
v -1.161709 0.149227 0.475079
v -1.161709 -0.121803 0.475079
v -1.198651 -0.121803 -0.452756
v -1.198651 0.149227 -0.452756
vt 0.786505 0.887374
vt 0.773245 0.887125
vt 0.774102 0.838269
vt 0.787365 0.838494
vt 0.567255 0.884760
vt 0.567032 0.839054
vt 0.477554 0.887073
vt 0.464306 0.887619
vt 0.462443 0.838945
vt 0.475700 0.838449
vt 0.567233 0.780015
vt 0.772844 0.776239
vt 0.774056 0.825064
vt 0.567025 0.825706
vt 0.567294 0.898032
vt 0.773120 0.900379
vt 0.475763 0.825333
vt 0.478061 0.776802
vt 0.477800 0.900323
vn 0.055361 -0.960942 -0.271157
vn 0.055361 0.960942 -0.271157
vn 0.068780 0.960102 0.271060
vn 0.068780 -0.960102 0.271060
vn 0.055361 0.960942 -0.271157
vn -0.010011 0.962398 -0.271458
vn 0.009771 0.964215 0.264940
vn 0.068780 0.960102 0.271060
vn -0.156987 0.952868 -0.259611
vn -0.156987 -0.952868 -0.259611
vn -0.125260 -0.951427 0.281240
vn -0.125260 0.951427 0.281240
vn -0.010011 -0.962398 -0.271458
vn 0.055361 -0.960942 -0.271157
vn 0.068780 -0.960102 0.271060
vn 0.009771 -0.964215 0.264940
vn 0.068780 -0.960102 0.271060
vn 0.068780 0.960102 0.271060
vn 0.009771 0.964215 0.264940
vn 0.009771 -0.964215 0.264940
vn -0.010011 -0.962398 -0.271458
vn -0.010011 0.962398 -0.271458
vn 0.055361 0.960942 -0.271157
vn 0.055361 -0.960942 -0.271157
vn 0.009771 -0.964215 0.264940
vn 0.009771 0.964215 0.264940
vn -0.125260 0.951427 0.281240
vn -0.125260 -0.951427 0.281240
vn -0.156987 -0.952868 -0.259611
vn -0.010011 -0.962398 -0.271458
vn 0.009771 -0.964215 0.264940
vn -0.125260 -0.951427 0.281240
vn -0.156987 -0.952868 -0.259611
vn -0.156987 0.952868 -0.259611
vn -0.010011 0.962398 -0.271458
vn -0.010011 -0.962398 -0.271458
vn 0.009771 0.964215 0.264940
vn -0.010011 0.962398 -0.271458
vn -0.156987 0.952868 -0.259611
vn -0.125260 0.951427 0.281240
s off
g Degrau_6
usemtl Escadas_Low:_initialShadingGroup4
f 1/1/1 3/2/2 4/3/3 2/4/4
f 3/2/5 12/5/6 9/6/7 4/3/8
f 5/7/9 7/8/10 8/9/11 6/10/12
f 11/11/13 1/12/14 2/13/15 10/14/16
f 2/13/17 4/3/18 9/6/19 10/14/20
f 11/15/21 12/5/22 3/2/23 1/16/24
f 10/14/25 9/6/26 6/10/27 8/17/28
f 7/18/29 11/11/30 10/14/31 8/17/32
f 7/19/33 5/7/34 12/5/35 11/15/36
f 9/6/37 12/5/38 5/7/39 6/10/40
