# This file uses centimeters as units for non-parametric coordinates.

mtllib Degrau_1.mtl
g default
v 3.019222 -0.119329 -0.682627
v 3.056167 -0.119329 0.319114
v 3.019222 0.151703 -0.682627
v 3.056167 0.151703 0.319114
v -3.041798 0.151703 -0.459099
v -3.004851 0.151703 0.542642
v -3.041798 -0.119329 -0.459099
v -3.004851 -0.119329 0.542642
v 1.873617 0.151703 0.386657
v 1.873617 -0.119329 0.386657
v 1.836673 -0.119329 -0.463143
v 1.836673 0.151703 -0.463143
v 0.833009 0.151703 0.607790
v 0.833009 -0.119329 0.607790
v 0.796066 -0.119329 -0.462281
v 0.796066 0.151703 -0.462281
vt 0.385018 0.663446
vt 0.398281 0.662826
vt 0.400695 0.711557
vt 0.387427 0.712219
vt 0.457608 0.667763
vt 0.458538 0.711191
vt 0.698410 0.665937
vt 0.711682 0.666707
vt 0.709033 0.715824
vt 0.695788 0.715066
vt 0.456296 0.767974
vt 0.398083 0.773871
vt 0.400518 0.724711
vt 0.458481 0.725299
vt 0.457759 0.654306
vt 0.399234 0.649698
vt 0.509588 0.713332
vt 0.509378 0.726110
vt 0.507398 0.777642
vt 0.509073 0.648841
vt 0.509170 0.662063
vt 0.695652 0.728540
vt 0.697362 0.777614
vt 0.698640 0.652656
vn 0.197797 -0.930481 -0.308354
vn 0.197797 0.930481 -0.308354
vn 0.243043 0.934413 0.260390
vn 0.243043 -0.934413 0.260390
vn 0.197797 0.930481 -0.308354
vn -0.025862 0.965011 -0.260933
vn 0.034287 0.963898 0.264054
vn 0.243043 0.934413 0.260390
vn -0.067637 0.964355 -0.255822
vn -0.067637 -0.964355 -0.255822
vn -0.067996 -0.966639 0.246952
vn -0.067996 0.966639 0.246952
vn -0.025862 -0.965011 -0.260933
vn 0.197797 -0.930481 -0.308354
vn 0.243043 -0.934413 0.260390
vn 0.034287 -0.963898 0.264054
vn 0.243043 -0.934413 0.260390
vn 0.243043 0.934413 0.260390
vn 0.034287 0.963898 0.264054
vn 0.034287 -0.963898 0.264054
vn -0.025862 -0.965011 -0.260933
vn -0.025862 0.965011 -0.260933
vn 0.197797 0.930481 -0.308354
vn 0.197797 -0.930481 -0.308354
vn 0.034287 -0.963898 0.264054
vn 0.034287 0.963898 0.264054
vn 0.008598 0.963126 0.268912
vn 0.008598 -0.963126 0.268912
vn -0.000210 -0.967283 -0.253698
vn -0.025862 -0.965011 -0.260933
vn 0.034287 -0.963898 0.264054
vn 0.008598 -0.963126 0.268912
vn -0.000210 -0.967283 -0.253698
vn -0.000210 0.967283 -0.253698
vn -0.025862 0.965011 -0.260933
vn -0.025862 -0.965011 -0.260933
vn 0.034287 0.963898 0.264054
vn -0.025862 0.965011 -0.260933
vn -0.000210 0.967283 -0.253698
vn 0.008598 0.963126 0.268912
vn 0.008598 -0.963126 0.268912
vn 0.008598 0.963126 0.268912
vn -0.067996 0.966639 0.246952
vn -0.067996 -0.966639 0.246952
vn -0.067637 -0.964355 -0.255822
vn -0.000210 -0.967283 -0.253698
vn 0.008598 -0.963126 0.268912
vn -0.067996 -0.966639 0.246952
vn -0.067637 -0.964355 -0.255822
vn -0.067637 0.964355 -0.255822
vn -0.000210 0.967283 -0.253698
vn -0.000210 -0.967283 -0.253698
vn 0.008598 0.963126 0.268912
vn -0.000210 0.967283 -0.253698
vn -0.067637 0.964355 -0.255822
vn -0.067996 0.966639 0.246952
s off
g Degrau_1
usemtl Escadas_Low:_initialShadingGroup4
f 1/1/1 3/2/2 4/3/3 2/4/4
f 3/2/5 12/5/6 9/6/7 4/3/8
f 5/7/9 7/8/10 8/9/11 6/10/12
f 11/11/13 1/12/14 2/13/15 10/14/16
f 2/13/17 4/3/18 9/6/19 10/14/20
f 11/15/21 12/5/22 3/2/23 1/16/24
f 10/14/25 9/6/26 13/17/27 14/18/28
f 15/19/29 11/11/30 10/14/31 14/18/32
f 15/20/33 16/21/34 12/5/35 11/15/36
f 9/6/37 12/5/38 16/21/39 13/17/40
f 14/18/41 13/17/42 6/10/43 8/22/44
f 7/23/45 15/19/46 14/18/47 8/22/48
f 7/24/49 5/7/50 16/21/51 15/20/52
f 13/17/53 16/21/54 5/7/55 6/10/56
