# This file uses centimeters as units for non-parametric coordinates.

mtllib Degrau_7.mtl
g default
v 3.019222 -0.101643 -0.598440
v 3.056167 -0.101643 0.403301
v 3.019222 0.169387 -0.598440
v 3.056167 0.169387 0.403301
v -3.041798 0.169387 -0.374913
v -3.004855 0.169387 0.526304
v -3.041798 -0.101643 -0.374913
v -3.004855 -0.101643 0.526304
v 0.487421 0.169387 0.400143
v 0.487421 -0.101643 0.400143
v 0.798153 -0.101643 -0.493219
v 0.798153 0.169387 -0.493219
vt 0.137210 0.875315
vt 0.150469 0.875489
vt 0.149877 0.924381
vt 0.136615 0.924226
vt 0.259313 0.878336
vt 0.276051 0.921603
vt 0.446971 0.875528
vt 0.460232 0.875441
vt 0.460494 0.919472
vt 0.447233 0.919541
vt 0.261018 0.978664
vt 0.152924 0.986468
vt 0.150142 0.937563
vt 0.276277 0.934921
vt 0.259335 0.865066
vt 0.150752 0.862252
vt 0.447390 0.932757
vt 0.448174 0.976743
vt 0.446793 0.862269
vn 0.103763 -0.959652 -0.261344
vn 0.103763 0.959652 -0.261344
vn 0.116286 0.948448 0.294829
vn 0.116286 -0.948448 0.294829
vn 0.103763 0.959652 -0.261344
vn -0.010873 0.955489 -0.294826
vn 0.005506 0.962475 0.271314
vn 0.116286 0.948448 0.294829
vn -0.080742 0.950142 -0.301183
vn -0.080742 -0.950142 -0.301183
vn -0.061316 -0.958273 0.279202
vn -0.061316 0.958273 0.279202
vn -0.010873 -0.955489 -0.294826
vn 0.103763 -0.959652 -0.261344
vn 0.116286 -0.948448 0.294829
vn 0.005506 -0.962475 0.271314
vn 0.116286 -0.948448 0.294829
vn 0.116286 0.948448 0.294829
vn 0.005506 0.962475 0.271314
vn 0.005506 -0.962475 0.271314
vn -0.010873 -0.955489 -0.294826
vn -0.010873 0.955489 -0.294826
vn 0.103763 0.959652 -0.261344
vn 0.103763 -0.959652 -0.261344
vn 0.005506 -0.962475 0.271314
vn 0.005506 0.962475 0.271314
vn -0.061316 0.958273 0.279202
vn -0.061316 -0.958273 0.279202
vn -0.080742 -0.950142 -0.301183
vn -0.010873 -0.955489 -0.294826
vn 0.005506 -0.962475 0.271314
vn -0.061316 -0.958273 0.279202
vn -0.080742 -0.950142 -0.301183
vn -0.080742 0.950142 -0.301183
vn -0.010873 0.955489 -0.294826
vn -0.010873 -0.955489 -0.294826
vn 0.005506 0.962475 0.271314
vn -0.010873 0.955489 -0.294826
vn -0.080742 0.950142 -0.301183
vn -0.061316 0.958273 0.279202
s off
g Degrau_7
usemtl Escadas_Low:_initialShadingGroup4
f 1/1/1 3/2/2 4/3/3 2/4/4
f 3/2/5 12/5/6 9/6/7 4/3/8
f 5/7/9 7/8/10 8/9/11 6/10/12
f 11/11/13 1/12/14 2/13/15 10/14/16
f 2/13/17 4/3/18 9/6/19 10/14/20
f 11/15/21 12/5/22 3/2/23 1/16/24
f 10/14/25 9/6/26 6/10/27 8/17/28
f 7/18/29 11/11/30 10/14/31 8/17/32
f 7/19/33 5/7/34 12/5/35 11/15/36
f 9/6/37 12/5/38 5/7/39 6/10/40
