# This file uses centimeters as units for non-parametric coordinates.

mtllib Bala.mtl
g default
v 0.070711 -0.075157 -0.070711
v 0.000000 -0.075157 -0.100000
v -0.070711 -0.075157 -0.070711
v -0.100000 -0.075157 0.000000
v -0.070711 -0.075157 0.070711
v 0.000000 -0.075157 0.100000
v 0.070711 -0.075157 0.070711
v 0.100000 -0.075157 0.000000
v 0.122475 -0.001952 -0.122474
v 0.000000 -0.001952 -0.173205
v -0.122474 -0.001952 -0.122474
v -0.173205 -0.001952 0.000000
v -0.122474 -0.001952 0.122474
v 0.000000 -0.001952 0.173205
v 0.122475 -0.001952 0.122474
v 0.173205 -0.001952 0.000000
v 0.141421 0.098048 -0.141421
v 0.000000 0.098048 -0.200000
v -0.141421 0.098048 -0.141421
v -0.200000 0.098048 0.000000
v -0.141421 0.098048 0.141421
v 0.000000 0.098048 0.200000
v 0.141421 0.098048 0.141421
v 0.200000 0.098048 0.000000
v 0.122475 0.198048 -0.122474
v 0.000000 0.198048 -0.173205
v -0.122474 0.198048 -0.122474
v -0.173205 0.198048 0.000000
v -0.122474 0.198048 0.122474
v 0.000000 0.198048 0.173205
v 0.122475 0.198048 0.122474
v 0.173205 0.198048 0.000000
v 0.070711 0.271253 -0.070711
v 0.000000 0.271253 -0.100000
v -0.070711 0.271253 -0.070711
v -0.100000 0.271253 0.000000
v -0.070711 0.271253 0.070711
v 0.000000 0.271253 0.100000
v 0.070711 0.271253 0.070711
v 0.100000 0.271253 0.000000
v 0.000000 -0.101952 0.000000
v 0.000000 0.298048 0.000000
vt 0.414458 0.807405
vt 0.412834 0.865274
vt 0.719525 0.534540
vt 0.609709 0.534812
vt 0.452605 0.907342
vt 0.828975 0.534673
vt 0.510474 0.908967
vt 0.067544 0.533228
vt 0.552544 0.869196
vt 0.172000 0.537158
vt 0.554167 0.811327
vt 0.280681 0.536588
vt 0.514395 0.769259
vt 0.390179 0.535908
vt 0.456526 0.767635
vt 0.499905 0.535312
vt 0.719857 0.614344
vt 0.609847 0.614729
vt 0.830732 0.614683
vt 0.054046 0.613978
vt 0.169268 0.615855
vt 0.280143 0.616194
vt 0.390153 0.615808
vt 0.500000 0.615269
vt 0.255879 0.696336
vt 0.137636 0.696359
vt 0.339498 0.779934
vt 0.339514 0.898169
vt 0.255925 0.981785
vt 0.137693 0.981807
vt 0.054070 0.898221
vt 0.054046 0.779984
vt 0.227663 0.770022
vt 0.169793 0.768410
vt 0.267442 0.812083
vt 0.265829 0.869952
vt 0.223770 0.909731
vt 0.165902 0.908120
vt 0.126122 0.866062
vt 0.127733 0.808192
vt 0.483501 0.838301
vt 0.196782 0.839070
vt 0.945954 0.616561
vt 0.064171 0.697397
vt 0.932456 0.697311
vt 0.542610 0.981028
vt 0.935830 0.533142
vt 0.500095 0.695226
vt 0.609821 0.694629
vt 0.390291 0.695726
vt 0.280475 0.695998
vt 0.171026 0.695865
vt 0.828000 0.693380
vt 0.719319 0.693950
vt 0.424385 0.695575
vt 0.340778 0.779177
vt 0.542619 0.695577
vt 0.626225 0.779183
vt 0.626224 0.897424
vt 0.424373 0.981021
vt 0.340773 0.897412
vn 0.411156 -0.813573 -0.411156
vn 0.000000 -0.826225 -0.563341
vn -0.000000 -0.434972 -0.900444
vn 0.636710 -0.434972 -0.636710
vn -0.411156 -0.813573 -0.411156
vn -0.636710 -0.434972 -0.636710
vn -0.563341 -0.826225 0.000000
vn -0.900444 -0.434972 0.000000
vn -0.411156 -0.813573 0.411156
vn -0.636710 -0.434972 0.636710
vn -0.000000 -0.826225 0.563341
vn -0.000000 -0.434972 0.900444
vn 0.411156 -0.813573 0.411156
vn 0.636710 -0.434972 0.636710
vn 0.563341 -0.826225 0.000000
vn 0.900444 -0.434972 -0.000000
vn 0.000000 -0.000000 -1.000000
vn 0.707107 0.000000 -0.707107
vn -0.707107 -0.000000 -0.707107
vn -1.000000 -0.000000 0.000000
vn -0.707107 0.000000 0.707107
vn -0.000000 0.000000 1.000000
vn 0.707107 -0.000000 0.707107
vn 1.000000 -0.000000 0.000000
vn 0.000000 0.434972 -0.900444
vn 0.636710 0.434972 -0.636710
vn -0.636710 0.434972 -0.636710
vn -0.900444 0.434972 0.000000
vn -0.636710 0.434972 0.636710
vn -0.000000 0.434972 0.900444
vn 0.636710 0.434972 0.636710
vn 0.900444 0.434972 -0.000000
vn 0.000000 0.826225 -0.563341
vn 0.411156 0.813573 -0.411156
vn -0.411156 0.813573 -0.411156
vn -0.563341 0.826225 -0.000000
vn -0.411157 0.813573 0.411156
vn -0.000000 0.826225 0.563341
vn 0.411156 0.813573 0.411156
vn 0.563341 0.826225 0.000000
vn 0.000000 -1.000000 -0.000000
vn 0.000000 1.000000 -0.000000
s 1
g Bala
usemtl initialShadingGroup
f 1/1/1 2/2/2 10/61/3 9/56/4
f 2/2/2 3/5/5 11/60/6 10/61/3
f 3/5/5 4/7/7 12/46/8 11/60/6
f 4/7/7 5/9/9 13/59/10 12/46/8
f 5/9/9 6/11/11 14/58/12 13/59/10
f 6/11/11 7/13/13 15/57/14 14/58/12
f 7/13/13 8/15/15 16/55/16 15/57/14
f 8/15/15 1/1/1 9/56/4 16/55/16
f 9/4/4 10/3/3 18/17/17 17/18/18
f 10/3/3 11/6/6 19/19/19 18/17/17
f 11/6/6 12/47/8 20/43/20 19/19/19
f 12/8/8 13/10/10 21/21/21 20/20/20
f 13/10/10 14/12/12 22/22/22 21/21/21
f 14/12/12 15/14/14 23/23/23 22/22/22
f 15/14/14 16/16/16 24/24/24 23/23/23
f 16/16/16 9/4/4 17/18/18 24/24/24
f 17/18/18 18/17/17 26/54/25 25/49/26
f 18/17/17 19/19/19 27/53/27 26/54/25
f 19/19/19 20/43/20 28/45/28 27/53/27
f 20/20/20 21/21/21 29/52/29 28/44/28
f 21/21/21 22/22/22 30/51/30 29/52/29
f 22/22/22 23/23/23 31/50/31 30/51/30
f 23/23/23 24/24/24 32/48/32 31/50/31
f 24/24/24 17/18/18 25/49/26 32/48/32
f 25/26/26 26/25/25 34/33/33 33/34/34
f 26/25/25 27/27/27 35/35/35 34/33/33
f 27/27/27 28/28/28 36/36/36 35/35/35
f 28/28/28 29/29/29 37/37/37 36/36/36
f 29/29/29 30/30/30 38/38/38 37/37/37
f 30/30/30 31/31/31 39/39/39 38/38/38
f 31/31/31 32/32/32 40/40/40 39/39/39
f 32/32/32 25/26/26 33/34/34 40/40/40
f 3/5/5 2/2/2 41/41/41 4/7/7
f 5/9/9 4/7/7 41/41/41 6/11/11
f 7/13/13 6/11/11 41/41/41 8/15/15
f 1/1/1 8/15/15 41/41/41 2/2/2
f 42/42/42 34/33/33 35/35/35 36/36/36
f 42/42/42 36/36/36 37/37/37 38/38/38
f 42/42/42 38/38/38 39/39/39 40/40/40
f 42/42/42 40/40/40 33/34/34 34/33/33
