# This file uses centimeters as units for non-parametric coordinates.

mtllib Bomba.mtl
g default
v 0.070711 -0.074112 -0.070711
v 0.000000 -0.074112 -0.100000
v -0.070711 -0.074112 -0.070711
v -0.100000 -0.074112 0.000000
v -0.070711 -0.074112 0.070711
v 0.000000 -0.074112 0.100000
v 0.070711 -0.074112 0.070711
v 0.100000 -0.074112 0.000000
v 0.122474 -0.002119 -0.122474
v -0.000000 -0.002119 -0.173205
v -0.122474 -0.002119 -0.122474
v -0.173205 -0.002119 -0.000000
v -0.122474 -0.002119 0.122474
v -0.000000 -0.002119 0.173205
v 0.122474 -0.002119 0.122474
v 0.173205 -0.002119 -0.000000
v 0.112884 0.215133 -0.112884
v 0.000000 0.215133 -0.159642
v -0.112884 0.215133 -0.112884
v -0.159642 0.215133 0.000000
v -0.112884 0.215133 0.112884
v 0.000000 0.215133 0.159642
v 0.112884 0.215133 0.112884
v 0.159642 0.215133 0.000000
v 0.062503 0.259926 -0.062503
v 0.000000 0.259926 -0.088393
v -0.062503 0.259926 -0.062503
v -0.088393 0.259926 0.000000
v -0.062503 0.259926 0.062503
v 0.000000 0.259926 0.088393
v 0.062503 0.259926 0.062503
v 0.088393 0.259926 0.000000
v 0.000000 -0.089374 0.000000
v 0.024383 0.334943 -0.024383
v 0.000000 0.334943 -0.034482
v -0.024383 0.334943 -0.024383
v -0.034482 0.334943 0.000000
v -0.024383 0.334943 0.024383
v 0.000000 0.334943 0.034482
v 0.024383 0.334943 0.024383
v 0.034482 0.334943 0.000000
v 0.019376 0.356718 -0.019376
v 0.000000 0.356718 -0.027401
v -0.019376 0.356718 -0.019376
v -0.027401 0.356718 0.000000
v -0.019376 0.356718 0.019376
v 0.000000 0.356718 0.027401
v 0.019376 0.356718 0.019376
v 0.027401 0.356718 0.000000
v 0.021547 0.379324 -0.021547
v 0.000000 0.379324 -0.030472
v 0.000000 0.379577 0.000000
v -0.021547 0.379324 -0.021547
v -0.030472 0.379324 0.000000
v -0.021547 0.379324 0.021547
v 0.000000 0.379324 0.030473
v 0.021547 0.379324 0.021547
v 0.030473 0.379324 0.000000
v 0.061452 0.326049 -0.061452
v 0.000000 0.326049 -0.086906
v -0.061452 0.326049 -0.061452
v -0.086906 0.326049 0.000000
v -0.061452 0.326049 0.061452
v 0.000000 0.326049 0.086906
v 0.061452 0.326049 0.061452
v 0.086906 0.326049 0.000000
v 0.056866 0.287686 -0.056865
v 0.000000 0.287686 -0.080420
v -0.056865 0.287686 -0.056865
v -0.080420 0.287686 0.000000
v -0.056865 0.287686 0.056866
v 0.000000 0.287686 0.080420
v 0.056866 0.287686 0.056866
v 0.080420 0.287686 0.000000
v 0.131446 0.007391 -0.131446
v 0.000000 0.007391 -0.185893
v 0.000000 0.108427 -0.199364
v 0.140972 0.108427 -0.140972
v -0.131446 0.007391 -0.131446
v -0.140972 0.108427 -0.140972
v -0.185893 0.007391 0.000000
v -0.199364 0.108427 0.000000
v -0.131446 0.007391 0.131446
v -0.140972 0.108427 0.140972
v -0.000000 0.007391 0.185893
v 0.000000 0.108427 0.199364
v 0.131446 0.007391 0.131446
v 0.140972 0.108427 0.140972
v 0.185893 0.007391 -0.000000
v 0.199364 0.108427 -0.000000
v 0.000000 0.208344 -0.172185
v 0.121753 0.208344 -0.121753
v -0.121753 0.208344 -0.121753
v -0.172185 0.208344 0.000000
v -0.121753 0.208344 0.121753
v 0.000000 0.208344 0.172185
v 0.121753 0.208344 0.121753
v 0.172185 0.208344 0.000000
vt 0.223772 0.451436
vt 0.265796 0.411634
vt 0.611489 0.068638
vt 0.722977 0.068609
vt 0.267367 0.353775
vt 0.722977 0.145570
vt 0.227566 0.311750
vt 0.611489 0.145624
vt 0.169705 0.310178
vt 0.127681 0.349980
vt 0.834466 0.145450
vt 0.126111 0.407840
vt 0.054046 0.068342
vt 0.165913 0.449864
vt 0.054046 0.145338
vt 0.165534 0.068467
vt 0.165534 0.145450
vt 0.277023 0.068608
vt 0.277023 0.145570
vt 0.388511 0.068638
vt 0.388511 0.145625
vt 0.500000 0.068646
vt 0.500000 0.145634
vt 0.722977 0.226346
vt 0.611489 0.226420
vt 0.054046 0.226114
vt 0.165534 0.226233
vt 0.277023 0.226347
vt 0.388511 0.226420
vt 0.500000 0.226413
vt 0.611489 0.056393
vt 0.722977 0.056363
vt 0.834466 0.056222
vt 0.054046 0.056097
vt 0.165534 0.056222
vt 0.277023 0.056363
vt 0.388511 0.056393
vt 0.500000 0.056398
vt 0.722977 0.238138
vt 0.861323 0.279702
vt 0.810336 0.248519
vt 0.611489 0.238213
vt 0.897422 0.326913
vt 0.586389 0.377034
vt 0.054046 0.237896
vt 0.607854 0.326542
vt 0.165534 0.238025
vt 0.643387 0.280940
vt 0.277023 0.238138
vt 0.693360 0.249581
vt 0.388511 0.238213
vt 0.751637 0.238109
vt 0.196739 0.380807
vt 0.458733 0.343610
vt 0.466234 0.361415
vt 0.451462 0.361504
vt 0.440945 0.351123
vt 0.440848 0.336342
vt 0.451236 0.325822
vt 0.466020 0.325733
vt 0.476532 0.336125
vt 0.476618 0.350903
vt 0.792547 0.298071
vt 0.827195 0.319638
vt 0.797540 0.348406
vt 0.775824 0.336419
vt 0.851354 0.353986
vt 0.812907 0.367075
vt 0.861966 0.400329
vt 0.817010 0.388347
vt 0.652295 0.353989
vt 0.690534 0.371157
vt 0.678117 0.320168
vt 0.705339 0.351600
vt 0.712844 0.298526
vt 0.726472 0.338147
vt 0.752655 0.290853
vt 0.751036 0.332830
vt 0.469875 0.372595
vt 0.487095 0.356232
vt 0.446129 0.371979
vt 0.429769 0.354758
vt 0.430377 0.331011
vt 0.447600 0.314650
vt 0.471348 0.315261
vt 0.487706 0.332486
vt 0.802644 0.270103
vt 0.846550 0.297228
vt 0.877591 0.338764
vt 0.608378 0.384621
vt 0.627234 0.338808
vt 0.658420 0.298121
vt 0.701786 0.270873
vt 0.752077 0.261026
vt 0.894043 0.386905
vt 0.637199 0.400323
vt 0.414007 0.362338
vt 0.685272 0.393348
vt 0.503464 0.324896
vt 0.503604 0.362008
vt 0.477124 0.298753
vt 0.440014 0.298891
vt 0.413871 0.325229
vt 0.440342 0.388484
vt 0.477459 0.388353
vt 0.436101 0.423318
vt 0.916591 0.380297
vt 0.489571 0.298906
vt 0.525712 0.336026
vt 0.437757 0.298225
vt 0.400635 0.334384
vt 0.399951 0.386199
vt 0.487902 0.423992
vt 0.524998 0.387820
vt 0.513734 0.238206
vt 0.585736 0.310214
vt 0.411917 0.238221
vt 0.339937 0.310213
vt 0.339934 0.412024
vt 0.411941 0.484024
vt 0.513766 0.483980
vt 0.585698 0.412008
vt 0.137668 0.523499
vt 0.255866 0.523477
vt 0.054072 0.439938
vt 0.054046 0.321737
vt 0.137611 0.238136
vt 0.255816 0.238117
vt 0.339410 0.321684
vt 0.339430 0.439883
vt 0.500000 0.238205
vt 0.834466 0.068466
vt 0.945954 0.068344
vt 0.945954 0.145338
vt 0.945954 0.056094
vt 0.945954 0.237904
vt 0.834466 0.238025
vt 0.834466 0.226233
vt 0.945954 0.226105
vn 0.389464 -0.834647 -0.389464
vn 0.000000 -0.841638 -0.540043
vn 0.000000 -0.734009 -0.679140
vn 0.480224 -0.734009 -0.480225
vn -0.389464 -0.834647 -0.389464
vn -0.480224 -0.734009 -0.480225
vn -0.540043 -0.841638 -0.000000
vn -0.679140 -0.734009 -0.000000
vn -0.389464 -0.834647 0.389464
vn -0.480224 -0.734009 0.480224
vn -0.000000 -0.841638 0.540043
vn -0.000000 -0.734009 0.679140
vn 0.389464 -0.834647 0.389464
vn 0.480224 -0.734009 0.480224
vn 0.540043 -0.841638 -0.000000
vn 0.679140 -0.734009 -0.000000
vn 0.692019 -0.205471 -0.692019
vn 0.000000 -0.205471 -0.978663
vn -0.000000 0.061042 -0.998135
vn 0.705788 0.061042 -0.705788
vn -0.692019 -0.205471 -0.692019
vn -0.705788 0.061042 -0.705788
vn -0.978663 -0.205471 0.000000
vn -0.998135 0.061042 0.000000
vn -0.692019 -0.205471 0.692019
vn -0.705788 0.061042 0.705788
vn 0.000000 -0.205471 0.978663
vn -0.000000 0.061042 0.998135
vn 0.692019 -0.205471 0.692019
vn 0.705788 0.061042 0.705788
vn 0.978663 -0.205471 -0.000000
vn 0.998135 0.061042 -0.000000
vn -0.000000 0.321256 -0.946992
vn 0.669625 0.321256 -0.669625
vn -0.669625 0.321256 -0.669625
vn -0.946992 0.321256 0.000000
vn -0.669625 0.321256 0.669625
vn -0.000000 0.321256 0.946992
vn 0.669625 0.321256 0.669625
vn 0.946992 0.321256 -0.000000
vn 0.366198 0.855452 -0.366198
vn -0.000000 0.855452 -0.517882
vn -0.000000 0.785875 -0.618385
vn 0.437264 0.785875 -0.437264
vn -0.366198 0.855452 -0.366198
vn -0.437264 0.785875 -0.437264
vn -0.517882 0.855452 -0.000000
vn -0.618385 0.785875 0.000000
vn -0.366198 0.855452 0.366198
vn -0.437264 0.785875 0.437264
vn 0.000000 0.855452 0.517882
vn -0.000000 0.785875 0.618385
vn 0.366198 0.855452 0.366198
vn 0.437264 0.785875 0.437264
vn 0.517882 0.855452 -0.000000
vn 0.618385 0.785875 -0.000000
vn 0.000000 -1.000000 0.000000
vn -0.000000 1.000000 -0.000000
vn 0.000000 0.692052 -0.721848
vn -0.511074 0.691090 -0.511075
vn -0.721847 0.692053 0.000000
vn -0.511074 0.691090 0.511075
vn -0.000000 0.692052 0.721847
vn 0.511074 0.691091 0.511074
vn 0.721847 0.692053 -0.000001
vn 0.511074 0.691090 -0.511075
vn 0.622552 0.474192 -0.622552
vn 0.000000 0.474193 -0.880421
vn 0.000000 0.954924 -0.296852
vn 0.209906 0.954924 -0.209906
vn -0.622552 0.474192 -0.622552
vn -0.209906 0.954924 -0.209906
vn -0.880421 0.474193 -0.000000
vn -0.296852 0.954923 -0.000000
vn -0.622552 0.474193 0.622552
vn -0.209906 0.954924 0.209906
vn 0.000000 0.474193 0.880421
vn 0.000000 0.954924 0.296852
vn 0.622552 0.474193 0.622552
vn 0.209906 0.954923 0.209906
vn 0.880421 0.474193 0.000000
vn 0.296852 0.954923 0.000000
vn 0.000000 0.102205 -0.994763
vn 0.703404 0.102205 -0.703404
vn -0.703404 0.102205 -0.703404
vn -0.994763 0.102205 0.000000
vn -0.703404 0.102205 0.703404
vn -0.000000 0.102205 0.994763
vn 0.703404 0.102205 0.703404
vn 0.994763 0.102205 0.000000
vn 0.706862 0.026287 -0.706862
vn -0.000000 0.026287 -0.999654
vn -0.706862 0.026287 -0.706862
vn -0.999654 0.026287 0.000000
vn -0.706862 0.026287 0.706862
vn -0.000000 0.026287 0.999654
vn 0.706863 0.026287 0.706862
vn 0.999654 0.026287 -0.000000
s 1
g Bomba1
usemtl initialShadingGroup
f 1/1/1 2/2/2 10/130/3 9/124/4
f 2/2/2 3/5/5 11/129/6 10/130/3
f 3/5/5 4/7/7 12/128/8 11/129/6
f 4/7/7 5/9/9 13/127/10 12/128/8
f 5/9/9 6/10/11 14/126/12 13/127/10
f 6/10/11 7/12/13 15/125/14 14/126/12
f 7/12/13 8/14/15 16/123/16 15/125/14
f 8/14/15 1/1/1 9/124/4 16/123/16
f 75/3/17 76/4/18 77/6/19 78/8/20
f 76/4/18 79/132/21 80/11/22 77/6/19
f 79/132/21 81/133/23 82/134/24 80/11/22
f 81/13/23 83/16/25 84/17/26 82/15/24
f 83/16/25 85/18/27 86/19/28 84/17/26
f 85/18/27 87/20/29 88/21/30 86/19/28
f 87/20/29 89/22/31 90/23/32 88/21/30
f 89/22/31 75/3/17 78/8/20 90/23/32
f 78/8/20 77/6/19 91/24/33 92/25/34
f 77/6/19 80/11/22 93/138/35 91/24/33
f 80/11/22 82/134/24 94/139/36 93/138/35
f 82/15/24 84/17/26 95/27/37 94/26/36
f 84/17/26 86/19/28 96/28/38 95/27/37
f 86/19/28 88/21/30 97/29/39 96/28/38
f 88/21/30 90/23/32 98/30/40 97/29/39
f 90/23/32 78/8/20 92/25/34 98/30/40
f 17/116/41 18/122/42 26/114/43 25/109/44
f 18/122/42 19/121/45 27/113/46 26/114/43
f 19/121/45 20/120/47 28/106/48 27/113/46
f 20/120/47 21/119/49 29/112/50 28/106/48
f 21/119/49 22/118/51 30/111/52 29/112/50
f 22/118/51 23/117/53 31/110/54 30/111/52
f 23/117/53 24/115/55 32/108/56 31/110/54
f 24/115/55 17/116/41 25/109/44 32/108/56
f 3/5/5 2/2/2 33/53/57 4/7/7
f 5/9/9 4/7/7 33/53/57 6/10/11
f 7/12/13 6/10/11 33/53/57 8/14/15
f 1/1/1 8/14/15 33/53/57 2/2/2
f 52/54/58 51/55/59 53/56/60 54/57/61
f 52/54/58 54/57/61 55/58/62 56/59/63
f 52/54/58 56/59/63 57/60/64 58/61/65
f 52/54/58 58/61/65 50/62/66 51/55/59
f 59/63/67 60/64/68 35/65/69 34/66/70
f 60/64/68 61/67/71 36/68/72 35/65/69
f 61/67/71 62/69/73 37/70/74 36/68/72
f 62/96/73 63/71/75 38/72/76 37/98/74
f 63/71/75 64/73/77 39/74/78 38/72/76
f 64/73/77 65/75/79 40/76/80 39/74/78
f 65/75/79 66/77/81 41/78/82 40/76/80
f 66/77/81 59/63/67 34/66/70 41/78/82
f 34/100/70 35/105/69 43/79/83 42/80/84
f 35/105/69 36/104/72 44/81/85 43/79/83
f 36/104/72 37/97/74 45/82/86 44/81/85
f 37/97/74 38/103/76 46/83/87 45/82/86
f 38/103/76 39/102/78 47/84/88 46/83/87
f 39/102/78 40/101/80 48/85/89 47/84/88
f 40/101/80 41/99/82 49/86/90 48/85/89
f 41/99/82 34/100/70 42/80/84 49/86/90
f 43/79/83 51/55/59 50/62/66 42/80/84
f 44/81/85 53/56/60 51/55/59 43/79/83
f 45/82/86 54/57/61 53/56/60 44/81/85
f 46/83/87 55/58/62 54/57/61 45/82/86
f 47/84/88 56/59/63 55/58/62 46/83/87
f 48/85/89 57/60/64 56/59/63 47/84/88
f 49/86/90 58/61/65 57/60/64 48/85/89
f 42/80/84 50/62/66 58/61/65 49/86/90
f 60/64/68 59/63/67 67/87/91 68/88/92
f 61/67/71 60/64/68 68/88/92 69/89/93
f 62/69/73 61/67/71 69/89/93 70/95/94
f 63/71/75 62/96/73 70/90/94 71/91/95
f 64/73/77 63/71/75 71/91/95 72/92/96
f 65/75/79 64/73/77 72/92/96 73/93/97
f 66/77/81 65/75/79 73/93/97 74/94/98
f 59/63/67 66/77/81 74/94/98 67/87/91
f 25/41/44 26/40/43 68/88/92 67/87/91
f 26/40/43 27/43/46 69/89/93 68/88/92
f 27/43/46 28/107/48 70/95/94 69/89/93
f 28/44/48 29/46/50 71/91/95 70/90/94
f 29/46/50 30/48/52 72/92/96 71/91/95
f 30/48/52 31/50/54 73/93/97 72/92/96
f 31/50/54 32/52/56 74/94/98 73/93/97
f 32/52/56 25/41/44 67/87/91 74/94/98
f 9/31/4 10/32/3 76/4/18 75/3/17
f 10/32/3 11/33/6 79/132/21 76/4/18
f 11/33/6 12/135/8 81/133/23 79/132/21
f 12/34/8 13/35/10 83/16/25 81/13/23
f 13/35/10 14/36/12 85/18/27 83/16/25
f 14/36/12 15/37/14 87/20/29 85/18/27
f 15/37/14 16/38/16 89/22/31 87/20/29
f 16/38/16 9/31/4 75/3/17 89/22/31
f 18/39/42 17/42/41 92/25/34 91/24/33
f 19/137/45 18/39/42 91/24/33 93/138/35
f 20/136/47 19/137/45 93/138/35 94/139/36
f 21/47/49 20/45/47 94/26/36 95/27/37
f 22/49/51 21/47/49 95/27/37 96/28/38
f 23/51/53 22/49/51 96/28/38 97/29/39
f 24/131/55 23/51/53 97/29/39 98/30/40
f 17/42/41 24/131/55 98/30/40 92/25/34
