# This file uses centimeters as units for non-parametric coordinates.

mtllib Madeira Suporte 2.mtl
g default
v -0.303489 -1.647703 -0.379513
v -0.303489 -1.647703 0.227465
v -0.303489 1.592656 -0.379513
v -0.303489 1.592656 0.227465
v 0.303489 1.592656 -0.379513
v 0.303489 1.592656 0.227465
v 0.303489 -1.647703 -0.379513
v 0.303489 -1.647703 0.227465
v -0.231890 0.818856 -0.119567
v 0.231890 0.818856 -0.119567
v 0.231890 0.818856 0.344213
v -0.231890 0.818856 0.344213
v -0.095016 -1.057048 -0.354964
v 0.354303 -1.057048 -0.354964
v 0.354303 -1.057048 0.094355
v -0.095016 -1.057048 0.094355
v -0.226581 0.004405 -0.451348
v 0.330786 0.004405 -0.451348
v 0.330786 0.004405 0.106019
v -0.226581 0.004405 0.106019
vt 0.928856 0.586492
vt 0.932740 0.635479
vt 0.867910 0.634089
vt 0.869456 0.587633
vt 0.552664 0.626344
vt 0.610393 0.623836
vt 0.612239 0.681404
vt 0.554940 0.683876
vt 0.858460 0.723518
vt 0.863219 0.680507
vt 0.918620 0.686564
vt 0.908496 0.738652
vt 0.973432 0.703767
vt 0.988656 0.649829
vt 0.917753 0.536262
vt 0.867997 0.542695
vt 0.688933 0.538254
vt 0.685697 0.583692
vt 0.605321 0.570334
vt 0.616657 0.516638
vt 0.613237 0.738798
vt 0.683865 0.669977
vt 0.686580 0.712501
vt 0.682559 0.627712
vt 0.768495 0.578366
vt 0.772371 0.528253
vt 0.763947 0.733353
vt 0.762511 0.680044
vt 0.761965 0.627454
vn -0.942987 0.332829 0.000000
vn -0.942987 0.332829 0.000000
vn -0.942987 0.332829 0.000000
vn -0.942987 0.332829 0.000000
vn -0.596925 0.374594 -0.709479
vn -0.637365 0.541424 0.548294
vn 0.637365 0.541424 0.548294
vn 0.596925 0.374594 -0.709479
vn 0.732281 -0.041857 -0.679716
vn 0.735595 0.034627 0.676536
vn 0.506097 -0.599253 0.620292
vn 0.516698 -0.647933 -0.559648
vn 0.516698 -0.647933 -0.559648
vn 0.506097 -0.599253 0.620292
vn -0.635529 -0.511337 0.578479
vn -0.655525 -0.540706 -0.527186
vn -0.635529 -0.511337 0.578479
vn 0.506097 -0.599253 0.620292
vn 0.735595 0.034627 0.676536
vn -0.679046 0.104281 0.726651
vn 0.516698 -0.647933 -0.559648
vn -0.655525 -0.540706 -0.527186
vn -0.679404 0.004835 -0.733749
vn 0.732281 -0.041857 -0.679716
vn 0.754612 0.037984 -0.655071
vn -0.766739 -0.020917 -0.641618
vn -0.596925 0.374594 -0.709479
vn 0.596925 0.374594 -0.709479
vn 0.596925 0.374594 -0.709479
vn 0.637365 0.541424 0.548294
vn 0.628201 -0.050666 0.776400
vn 0.754612 0.037984 -0.655071
vn -0.640667 -0.082301 0.763395
vn 0.628201 -0.050666 0.776400
vn 0.637365 0.541424 0.548294
vn -0.637365 0.541424 0.548294
vn -0.766739 -0.020917 -0.641618
vn -0.640667 -0.082301 0.763395
vn -0.637365 0.541424 0.548294
vn -0.596925 0.374594 -0.709479
vn 0.732281 -0.041857 -0.679716
vn -0.679404 0.004835 -0.733749
vn -0.667324 0.049696 -0.743108
vn 0.655780 0.126267 -0.744318
vn 0.655780 0.126267 -0.744318
vn 0.740015 -0.034245 0.671718
vn 0.735595 0.034627 0.676536
vn 0.732281 -0.041857 -0.679716
vn -0.679046 0.104281 0.726651
vn 0.735595 0.034627 0.676536
vn 0.740015 -0.034245 0.671718
vn -0.739234 -0.142152 0.658275
vn -0.679404 0.004835 -0.733749
vn -0.679046 0.104281 0.726651
vn -0.739234 -0.142152 0.658275
vn -0.667324 0.049696 -0.743108
vn 0.655780 0.126267 -0.744318
vn -0.667324 0.049696 -0.743108
vn -0.766739 -0.020917 -0.641618
vn 0.754612 0.037984 -0.655071
vn 0.754612 0.037984 -0.655071
vn 0.628201 -0.050666 0.776400
vn 0.740015 -0.034245 0.671718
vn 0.655780 0.126267 -0.744318
vn -0.739234 -0.142152 0.658275
vn 0.740015 -0.034245 0.671718
vn 0.628201 -0.050666 0.776400
vn -0.640667 -0.082301 0.763395
vn -0.667324 0.049696 -0.743108
vn -0.739234 -0.142152 0.658275
vn -0.640667 -0.082301 0.763395
vn -0.766739 -0.020917 -0.641618
s off
g Madeira_Suporte_2
usemtl Madeiras_low:initialShadingGroup
f 1/1/1 2/2/2 16/3/3 13/4/4
f 3/5/5 4/6/6 6/7/7 5/8/8
f 14/9/9 15/10/10 8/11/11 7/12/12
f 7/13/13 8/11/14 2/2/15 1/14/16
f 2/2/17 8/11/18 15/10/19 16/3/20
f 7/15/21 1/1/22 13/4/23 14/16/24
f 10/17/25 9/18/26 3/19/27 5/20/28
f 5/21/29 6/7/30 11/22/31 10/23/32
f 12/24/33 11/22/34 6/7/35 4/6/36
f 9/18/37 12/24/38 4/6/39 3/19/40
f 14/16/41 13/4/42 17/25/43 18/26/44
f 18/27/45 19/28/46 15/10/47 14/9/48
f 16/3/49 15/10/50 19/28/51 20/29/52
f 13/4/53 16/3/54 20/29/55 17/25/56
f 18/26/57 17/25/58 9/18/59 10/17/60
f 10/23/61 11/22/62 19/28/63 18/27/64
f 20/29/65 19/28/66 11/22/67 12/24/68
f 17/25/69 20/29/70 12/24/71 9/18/72
