# This file uses centimeters as units for non-parametric coordinates.

mtllib Madeira Suporte 1.mtl
g default
v -0.276716 -1.647703 -0.379513
v -0.276716 -1.647703 0.227465
v -0.276716 1.592656 -0.379513
v -0.276716 1.592656 0.227465
v 0.330263 1.592656 -0.379513
v 0.330263 1.592656 0.227465
v 0.330263 -1.647703 -0.379513
v 0.330263 -1.647703 0.227465
v -0.147216 0.818856 -0.339665
v 0.380066 0.818856 -0.339665
v 0.380066 0.818856 0.187618
v -0.147216 0.818856 0.187618
v -0.094123 -1.057048 -0.080655
v 0.337683 -1.057048 -0.080655
v 0.337683 -1.057048 0.351151
v -0.094123 -1.057048 0.351151
v -0.276716 0.004405 -0.379513
v 0.330263 0.004405 -0.379513
v 0.330263 0.004405 0.227465
v -0.276716 0.004405 0.227465
vt 0.950279 0.101809
vt 0.939513 0.151404
vt 0.880701 0.156481
vt 0.881934 0.111632
vt 0.566067 0.168986
vt 0.623217 0.161249
vt 0.630996 0.216475
vt 0.574205 0.225374
vt 0.879723 0.239633
vt 0.879159 0.198765
vt 0.932512 0.207062
vt 0.936623 0.264504
vt 0.988674 0.216538
vt 0.997059 0.160083
vt 0.933617 0.052250
vt 0.878424 0.068255
vt 0.698920 0.054611
vt 0.697290 0.106551
vt 0.622565 0.106684
vt 0.628618 0.051749
vt 0.634344 0.273456
vt 0.703382 0.212870
vt 0.705819 0.263476
vt 0.700402 0.160116
vt 0.774531 0.104591
vt 0.776199 0.051764
vt 0.780966 0.266762
vt 0.780670 0.209653
vt 0.779048 0.155484
vn -0.955390 0.295347 0.000000
vn -0.955390 0.295347 0.000000
vn -0.955390 0.295347 0.000000
vn -0.955390 0.295347 0.000000
vn -0.662198 0.432147 -0.612163
vn -0.662198 0.432147 0.612163
vn 0.584534 0.512547 0.628981
vn 0.584534 0.512547 -0.628981
vn 0.774750 -0.000680 -0.632267
vn 0.673327 0.000382 0.739345
vn 0.543729 -0.685398 0.484343
vn 0.496619 -0.495447 -0.712673
vn 0.496619 -0.495447 -0.712673
vn 0.543729 -0.685398 0.484343
vn -0.652653 -0.593206 0.471328
vn -0.580432 -0.456580 -0.674266
vn -0.652653 -0.593206 0.471328
vn 0.543729 -0.685398 0.484343
vn 0.673327 0.000382 0.739345
vn -0.624430 -0.008103 0.781039
vn 0.496619 -0.495447 -0.712673
vn -0.580432 -0.456580 -0.674266
vn -0.732157 0.014928 -0.680972
vn 0.774750 -0.000680 -0.632267
vn 0.732076 0.000072 -0.681223
vn -0.683110 -0.000170 -0.730316
vn -0.662198 0.432147 -0.612163
vn 0.584534 0.512547 -0.628981
vn 0.584534 0.512547 -0.628981
vn 0.584534 0.512547 0.628981
vn 0.732076 0.000072 0.681223
vn 0.732076 0.000072 -0.681223
vn -0.683110 -0.000170 0.730316
vn 0.732076 0.000072 0.681223
vn 0.584534 0.512547 0.628981
vn -0.662198 0.432147 0.612163
vn -0.683110 -0.000170 -0.730316
vn -0.683110 -0.000170 0.730316
vn -0.662198 0.432147 0.612163
vn -0.662198 0.432147 -0.612163
vn 0.774750 -0.000680 -0.632267
vn -0.732157 0.014928 -0.680972
vn -0.701662 -0.097785 -0.705768
vn 0.653525 -0.113394 -0.748363
vn 0.653525 -0.113394 -0.748363
vn 0.708455 0.044142 0.704375
vn 0.673327 0.000382 0.739345
vn 0.774750 -0.000680 -0.632267
vn -0.624430 -0.008103 0.781039
vn 0.673327 0.000382 0.739345
vn 0.708455 0.044142 0.704375
vn -0.752765 0.034119 0.657404
vn -0.732157 0.014928 -0.680972
vn -0.624430 -0.008103 0.781039
vn -0.752765 0.034119 0.657404
vn -0.701662 -0.097785 -0.705768
vn 0.653525 -0.113394 -0.748363
vn -0.701662 -0.097785 -0.705768
vn -0.683110 -0.000170 -0.730316
vn 0.732076 0.000072 -0.681223
vn 0.732076 0.000072 -0.681223
vn 0.732076 0.000072 0.681223
vn 0.708455 0.044142 0.704375
vn 0.653525 -0.113394 -0.748363
vn -0.752765 0.034119 0.657404
vn 0.708455 0.044142 0.704375
vn 0.732076 0.000072 0.681223
vn -0.683110 -0.000170 0.730316
vn -0.701662 -0.097785 -0.705768
vn -0.752765 0.034119 0.657404
vn -0.683110 -0.000170 0.730316
vn -0.683110 -0.000170 -0.730316
s off
g Madeira_Suporte_1
usemtl Madeiras_low:initialShadingGroup
f 1/1/1 2/2/2 16/3/3 13/4/4
f 3/5/5 4/6/6 6/7/7 5/8/8
f 14/9/9 15/10/10 8/11/11 7/12/12
f 7/13/13 8/11/14 2/2/15 1/14/16
f 2/2/17 8/11/18 15/10/19 16/3/20
f 7/15/21 1/1/22 13/4/23 14/16/24
f 10/17/25 9/18/26 3/19/27 5/20/28
f 5/21/29 6/7/30 11/22/31 10/23/32
f 12/24/33 11/22/34 6/7/35 4/6/36
f 9/18/37 12/24/38 4/6/39 3/19/40
f 14/16/41 13/4/42 17/25/43 18/26/44
f 18/27/45 19/28/46 15/10/47 14/9/48
f 16/3/49 15/10/50 19/28/51 20/29/52
f 13/4/53 16/3/54 20/29/55 17/25/56
f 18/26/57 17/25/58 9/18/59 10/17/60
f 10/23/61 11/22/62 19/28/63 18/27/64
f 20/29/65 19/28/66 11/22/67 12/24/68
f 17/25/69 20/29/70 12/24/71 9/18/72
