# This file uses centimeters as units for non-parametric coordinates.

mtllib SuporteTimaoDuplo.mtl
g default
v 0.136532 2.689211 -0.174203
v 0.191519 2.556460 -0.174203
v 0.136532 2.423708 -0.174203
v 0.003781 2.368725 -0.174203
v -0.128970 2.423708 -0.174202
v -0.183957 2.556460 -0.174202
v -0.128970 2.689211 -0.174202
v 0.003781 2.744198 -0.174203
v 0.136532 2.689211 -1.096790
v 0.191519 2.556460 -1.096790
v 0.136532 2.423708 -1.096790
v 0.003781 2.368724 -1.096790
v -0.128970 2.423708 -1.096790
v -0.183957 2.556460 -1.096790
v -0.128970 2.689211 -1.096790
v 0.003781 2.744199 -1.096790
v 0.003781 2.556460 -1.096790
v 0.505012 3.057690 -0.174203
v 0.712628 2.556460 -0.174203
v 0.505010 2.055227 -0.174203
v 0.003780 1.847612 -0.174203
v -0.497449 2.055227 -0.174202
v -0.705067 2.556460 -0.174202
v -0.497451 3.057690 -0.174202
v 0.003781 3.265305 -0.174203
v -0.808345 1.774166 -0.174202
v 0.815905 1.774166 -0.174203
v 0.003780 1.774164 -0.174203
v 0.811326 1.455232 -0.188315
v 0.003780 1.455230 -0.188315
v -0.803765 1.455232 -0.188314
v 0.910524 0.494566 -0.379055
v 0.924369 1.458605 -0.379055
v 0.003780 1.465223 -0.379055
v 0.003780 0.501186 -0.379055
v -0.916807 1.458605 -0.379053
v -0.902962 0.494566 -0.379053
v 1.195297 0.494566 -0.560453
v 0.003780 0.501186 -0.560457
v -1.187737 0.494566 -0.560453
v 1.195297 -0.007370 -0.560453
v 0.003780 -0.000750 -0.560457
v -1.187737 -0.007370 -0.560453
v 0.136532 2.689211 0.183158
v 0.191519 2.556460 0.183158
v 0.136532 2.423708 0.183158
v 0.003781 2.368725 0.183158
v -0.128970 2.423708 0.183159
v -0.183957 2.556460 0.183159
v -0.128970 2.689211 0.183159
v 0.003781 2.744198 0.183158
v 0.136532 2.689211 1.105745
v 0.191519 2.556460 1.105745
v 0.136532 2.423708 1.105745
v 0.003781 2.368725 1.105745
v -0.128970 2.423708 1.105745
v -0.183957 2.556460 1.105745
v -0.128970 2.689211 1.105745
v 0.003781 2.744198 1.105745
v 0.003781 2.556460 1.105745
v 0.505012 3.057690 0.183158
v 0.712628 2.556460 0.183158
v 0.505010 2.055227 0.183158
v 0.003780 1.847612 0.183158
v -0.497449 2.055227 0.183159
v -0.705067 2.556460 0.183159
v -0.497451 3.057690 0.183159
v 0.003781 3.265305 0.183158
v -0.808345 1.774166 0.183159
v 0.815905 1.774166 0.183158
v 0.003780 1.774164 0.183158
v 0.811326 1.455233 0.197273
v 0.003780 1.455229 0.197273
v -0.803765 1.455233 0.197273
v 0.910524 0.494566 0.388009
v 0.924369 1.458605 0.388009
v 0.003780 1.465223 0.388009
v 0.003780 0.501186 0.388009
v -0.916807 1.458605 0.388010
v -0.902962 0.494566 0.388010
v 1.195297 0.494566 0.569410
v 0.003780 0.501186 0.569416
v -1.187737 0.494566 0.569410
v 1.195297 -0.007370 0.569410
v 0.003780 -0.000750 0.569416
v -1.187737 -0.007370 0.569410
v 1.195297 -0.007370 0.004478
v 1.195297 0.494566 0.004478
v 0.910524 0.494566 0.004479
v 0.924369 1.458605 0.004479
v 0.811326 1.455233 0.004479
v 0.815905 1.774166 0.004478
v 0.505010 2.055227 0.004478
v 0.712628 2.556460 0.004478
v 0.505012 3.057690 0.004478
v 0.003781 3.265305 0.004478
v -0.497451 3.057690 0.004477
v -0.705067 2.556460 0.004477
v -0.497449 2.055227 0.004477
v -0.808345 1.774166 0.004477
v -0.803765 1.455233 0.004479
v -0.916807 1.458605 0.004479
v -0.902962 0.494566 0.004479
v -1.187737 0.494566 0.004477
v -1.187737 -0.007370 0.004477
vt 0.343008 0.995165
vt 0.328775 0.994954
vt 0.329866 0.903420
vt 0.344076 0.903581
vt 0.314547 0.994754
vt 0.315651 0.903247
vt 0.300324 0.994564
vt 0.301432 0.903066
vt 0.414408 0.994993
vt 0.400184 0.995051
vt 0.399894 0.903627
vt 0.414115 0.903574
vt 0.385957 0.995113
vt 0.385675 0.903675
vt 0.371726 0.995182
vt 0.371461 0.903717
vt 0.357491 0.995258
vt 0.357651 0.905769
vt 0.357824 0.889373
vt 0.338896 0.890085
vt 0.344483 0.876582
vt 0.357896 0.871015
vt 0.371265 0.876691
vt 0.376746 0.890244
vt 0.567023 0.738592
vt 0.573141 0.751522
vt 0.540963 0.792230
vt 0.519717 0.748782
vt 0.571120 0.724720
vt 0.527667 0.693212
vt 0.584924 0.719263
vt 0.583701 0.669829
vt 0.598329 0.724735
vt 0.640590 0.691098
vt 0.602863 0.738728
vt 0.650752 0.747360
vt 0.597307 0.751312
vt 0.628998 0.792251
vt 0.585246 0.756817
vt 0.584749 0.809558
vt 0.503823 0.662115
vt 0.583493 0.662696
vt 0.662375 0.657699
vt 0.582836 0.630915
vt 0.499474 0.630248
vt 0.665352 0.624898
vt 0.580922 0.514732
vt 0.582354 0.611855
vt 0.500690 0.612442
vt 0.482792 0.515649
vt 0.680033 0.516396
vt 0.664106 0.605694
vt 0.463785 0.494440
vt 0.580951 0.496925
vt 0.699994 0.494837
vt 0.447899 0.449101
vt 0.580761 0.442637
vt 0.712955 0.449344
vt 0.091833 0.995138
vt 0.090598 0.903557
vt 0.104807 0.903369
vt 0.106065 0.994902
vt 0.119022 0.903171
vt 0.120292 0.994676
vt 0.133241 0.902964
vt 0.134515 0.994460
vt 0.020432 0.995097
vt 0.020559 0.903678
vt 0.034780 0.903704
vt 0.034656 0.995129
vt 0.048998 0.903727
vt 0.048883 0.995165
vt 0.063212 0.903742
vt 0.063114 0.995208
vt 0.077027 0.905770
vt 0.077349 0.995258
vt 0.076823 0.889374
vt 0.076719 0.871016
vt 0.090141 0.876559
vt 0.095752 0.890051
vt 0.057904 0.890279
vt 0.063360 0.876717
vt 0.792527 0.686421
vt 0.745189 0.676142
vt 0.766622 0.632677
vt 0.798465 0.673410
vt 0.796774 0.699893
vt 0.753083 0.731578
vt 0.810462 0.706297
vt 0.808839 0.755283
vt 0.823644 0.700370
vt 0.865960 0.734083
vt 0.828279 0.686427
vt 0.876180 0.677876
vt 0.822916 0.673425
vt 0.854626 0.632828
vt 0.810829 0.668660
vt 0.810261 0.615599
vt 0.808625 0.762404
vt 0.729048 0.762579
vt 0.887589 0.767569
vt 0.807907 0.794154
vt 0.724558 0.794450
vt 0.890449 0.800388
vt 0.805589 0.910283
vt 0.707434 0.908974
vt 0.725703 0.812259
vt 0.807366 0.813205
vt 0.904703 0.909004
vt 0.889136 0.819591
vt 0.805540 0.928091
vt 0.688331 0.930102
vt 0.924572 0.930648
vt 0.805113 0.982378
vt 0.672241 0.975362
vt 0.937327 0.976206
vt 0.959635 0.901088
vt 0.991206 0.944534
vt 0.941264 0.885448
vt 0.915509 0.798345
vt 0.909422 0.790209
vt 0.902662 0.760021
vt 0.884714 0.728443
vt 0.892828 0.671519
vt 0.864922 0.618517
vt 0.809664 0.597948
vt 0.755567 0.619090
vt 0.729353 0.670355
vt 0.735141 0.724088
vt 0.713975 0.754297
vt 0.705342 0.784417
vt 0.698437 0.793377
vt 0.671673 0.883642
vt 0.651932 0.900132
vt 0.623289 0.940405
vt 0.427253 0.524240
vt 0.398793 0.483838
vt 0.446922 0.540817
vt 0.473343 0.631200
vt 0.480211 0.640178
vt 0.488697 0.670307
vt 0.509696 0.700623
vt 0.503853 0.754509
vt 0.529915 0.805830
vt 0.584106 0.827186
vt 0.639306 0.806577
vt 0.667378 0.753741
vt 0.659338 0.696787
vt 0.677412 0.665302
vt 0.684284 0.635151
vt 0.690397 0.627045
vt 0.716492 0.540103
vt 0.734928 0.524551
vt 0.766690 0.481255
vn 0.360735 0.360732 -0.860083
vn 0.510156 0.000000 -0.860082
vn 0.988553 0.000000 -0.150872
vn 0.699014 0.699011 -0.150872
vn 0.510156 0.000000 -0.860082
vn 0.360728 -0.360730 -0.860087
vn 0.699008 -0.699018 -0.150870
vn 0.988553 0.000000 -0.150872
vn 0.360728 -0.360730 -0.860087
vn -0.000002 -0.510158 -0.860081
vn 0.000000 -0.988553 -0.150872
vn 0.699008 -0.699018 -0.150870
vn -0.000002 -0.510158 -0.860081
vn -0.360727 -0.360730 -0.860087
vn -0.699007 -0.699019 -0.150870
vn 0.000000 -0.988553 -0.150872
vn -0.360727 -0.360730 -0.860087
vn -0.510155 0.000000 -0.860083
vn -0.988553 0.000000 -0.150871
vn -0.699007 -0.699019 -0.150870
vn -0.510155 0.000000 -0.860083
vn -0.360734 0.360732 -0.860083
vn -0.699013 0.699013 -0.150871
vn -0.988553 0.000000 -0.150871
vn -0.360734 0.360732 -0.860083
vn -0.000001 0.510155 -0.860082
vn -0.000000 0.988553 -0.150871
vn -0.699013 0.699013 -0.150871
vn -0.000001 0.510155 -0.860082
vn 0.360735 0.360732 -0.860083
vn 0.699014 0.699011 -0.150872
vn -0.000000 0.988553 -0.150871
vn -0.000000 0.000000 -1.000000
vn 0.988553 0.000000 -0.150872
vn 0.699008 -0.699018 -0.150870
vn 0.000000 -0.988553 -0.150872
vn -0.000000 0.000000 -1.000000
vn 0.000000 -0.988553 -0.150872
vn -0.699007 -0.699019 -0.150870
vn -0.988553 0.000000 -0.150871
vn -0.000000 0.000000 -1.000000
vn -0.988553 0.000000 -0.150871
vn -0.699013 0.699013 -0.150871
vn -0.000000 0.988553 -0.150871
vn -0.000000 0.000000 -1.000000
vn -0.000000 0.988553 -0.150871
vn 0.699014 0.699011 -0.150872
vn 0.988553 0.000000 -0.150872
vn 0.510156 0.000000 -0.860082
vn 0.360735 0.360732 -0.860083
vn 0.414261 0.414261 -0.810417
vn 0.585852 -0.000002 -0.810418
vn 0.360728 -0.360730 -0.860087
vn 0.510156 0.000000 -0.860082
vn 0.585852 -0.000002 -0.810418
vn 0.317070 0.041859 -0.947478
vn -0.000002 -0.510158 -0.860081
vn 0.360728 -0.360730 -0.860087
vn 0.317070 0.041859 -0.947478
vn -0.000000 0.000001 -1.000000
vn -0.360727 -0.360730 -0.860087
vn -0.000002 -0.510158 -0.860081
vn -0.000000 0.000001 -1.000000
vn -0.317066 0.041859 -0.947479
vn -0.510155 0.000000 -0.860083
vn -0.360727 -0.360730 -0.860087
vn -0.317066 0.041859 -0.947479
vn -0.585847 -0.000001 -0.810422
vn -0.360734 0.360732 -0.860083
vn -0.510155 0.000000 -0.860083
vn -0.585847 -0.000001 -0.810422
vn -0.414256 0.414259 -0.810420
vn -0.000001 0.510155 -0.860082
vn -0.360734 0.360732 -0.860083
vn -0.414256 0.414259 -0.810420
vn 0.000002 0.585851 -0.810419
vn 0.360735 0.360732 -0.860083
vn -0.000001 0.510155 -0.860082
vn 0.000002 0.585851 -0.810419
vn 0.414261 0.414261 -0.810417
vn -0.000000 0.000001 -1.000000
vn 0.317070 0.041859 -0.947478
vn 0.323783 0.192304 -0.926382
vn -0.000000 0.029231 -0.999573
vn -0.317066 0.041859 -0.947479
vn -0.000000 0.000001 -1.000000
vn -0.000000 0.029231 -0.999573
vn -0.323780 0.192303 -0.926383
vn -0.000001 0.572622 -0.819819
vn -0.000000 0.029231 -0.999573
vn 0.323783 0.192304 -0.926382
vn 0.147316 0.740926 -0.655231
vn -0.147314 0.740926 -0.655231
vn -0.323780 0.192303 -0.926383
vn -0.000000 0.029231 -0.999573
vn -0.000001 0.572622 -0.819819
vn -0.000001 0.210464 -0.977602
vn -0.000001 0.185907 -0.982567
vn 0.387292 0.119897 -0.914128
vn 0.345298 0.455560 -0.820509
vn -0.345298 0.455561 -0.820508
vn -0.387293 0.119896 -0.914127
vn -0.000001 0.185907 -0.982567
vn -0.000001 0.210464 -0.977602
vn -0.000001 0.572622 -0.819819
vn 0.147316 0.740926 -0.655231
vn 0.387292 0.119897 -0.914128
vn -0.000001 0.185907 -0.982567
vn -0.147314 0.740926 -0.655231
vn -0.000001 0.572622 -0.819819
vn -0.000001 0.185907 -0.982567
vn -0.387293 0.119896 -0.914127
vn -0.000001 0.210464 -0.977602
vn 0.345298 0.455560 -0.820509
vn 0.416700 0.227438 -0.880133
vn -0.000000 0.304646 -0.952466
vn -0.345298 0.455561 -0.820508
vn -0.000001 0.210464 -0.977602
vn -0.000000 0.304646 -0.952466
vn -0.416699 0.227439 -0.880133
vn -0.000000 0.304646 -0.952466
vn 0.416700 0.227438 -0.880133
vn 0.429656 0.000000 -0.902993
vn 0.000000 0.000000 -1.000000
vn -0.416699 0.227439 -0.880133
vn -0.000000 0.304646 -0.952466
vn 0.000000 0.000000 -1.000000
vn -0.429656 0.000000 -0.902993
vn 0.360733 0.360732 0.860084
vn 0.699014 0.699012 0.150872
vn 0.988553 0.000000 0.150871
vn 0.510154 0.000000 0.860083
vn 0.510154 0.000000 0.860083
vn 0.988553 0.000000 0.150871
vn 0.699007 -0.699019 0.150870
vn 0.360723 -0.360730 0.860089
vn 0.360723 -0.360730 0.860089
vn 0.699007 -0.699019 0.150870
vn 0.000001 -0.988553 0.150874
vn 0.000001 -0.510157 0.860081
vn 0.000001 -0.510157 0.860081
vn 0.000001 -0.988553 0.150874
vn -0.699007 -0.699019 0.150870
vn -0.360722 -0.360731 0.860089
vn -0.360722 -0.360731 0.860089
vn -0.699007 -0.699019 0.150870
vn -0.988553 0.000000 0.150871
vn -0.510154 0.000000 0.860083
vn -0.510154 0.000000 0.860083
vn -0.988553 0.000000 0.150871
vn -0.699014 0.699012 0.150872
vn -0.360732 0.360734 0.860083
vn -0.360732 0.360734 0.860083
vn -0.699014 0.699012 0.150872
vn 0.000001 0.988553 0.150872
vn 0.000002 0.510153 0.860084
vn 0.000002 0.510153 0.860084
vn 0.000001 0.988553 0.150872
vn 0.699014 0.699012 0.150872
vn 0.360733 0.360732 0.860084
vn 0.000000 0.000000 1.000000
vn 0.000001 -0.988553 0.150874
vn 0.699007 -0.699019 0.150870
vn 0.988553 0.000000 0.150871
vn 0.000000 0.000000 1.000000
vn -0.988553 0.000000 0.150871
vn -0.699007 -0.699019 0.150870
vn 0.000001 -0.988553 0.150874
vn 0.000000 0.000000 1.000000
vn 0.000001 0.988553 0.150872
vn -0.699014 0.699012 0.150872
vn -0.988553 0.000000 0.150871
vn 0.000000 0.000000 1.000000
vn 0.988553 0.000000 0.150871
vn 0.699014 0.699012 0.150872
vn 0.000001 0.988553 0.150872
vn 0.510154 0.000000 0.860083
vn 0.585851 -0.000002 0.810419
vn 0.414260 0.414261 0.810418
vn 0.360733 0.360732 0.860084
vn 0.360723 -0.360730 0.860089
vn 0.317067 0.041859 0.947479
vn 0.585851 -0.000002 0.810419
vn 0.510154 0.000000 0.860083
vn 0.000001 -0.510157 0.860081
vn 0.000001 -0.000001 1.000000
vn 0.317067 0.041859 0.947479
vn 0.360723 -0.360730 0.860089
vn -0.360722 -0.360731 0.860089
vn -0.317069 0.041859 0.947478
vn 0.000001 -0.000001 1.000000
vn 0.000001 -0.510157 0.860081
vn -0.510154 0.000000 0.860083
vn -0.585856 -0.000001 0.810415
vn -0.317069 0.041859 0.947478
vn -0.360722 -0.360731 0.860089
vn -0.360732 0.360734 0.860083
vn -0.414262 0.414263 0.810416
vn -0.585856 -0.000001 0.810415
vn -0.510154 0.000000 0.860083
vn 0.000002 0.510153 0.860084
vn -0.000001 0.585853 0.810417
vn -0.414262 0.414263 0.810416
vn -0.360732 0.360734 0.860083
vn 0.360733 0.360732 0.860084
vn 0.414260 0.414261 0.810418
vn -0.000001 0.585853 0.810417
vn 0.000002 0.510153 0.860084
vn 0.000001 -0.000001 1.000000
vn 0.000001 0.029234 0.999573
vn 0.323781 0.192308 0.926382
vn 0.317067 0.041859 0.947479
vn -0.317069 0.041859 0.947478
vn -0.323785 0.192310 0.926380
vn 0.000001 0.029234 0.999573
vn 0.000001 -0.000001 1.000000
vn 0.000001 0.572621 0.819820
vn 0.147314 0.740923 0.655234
vn 0.323781 0.192308 0.926382
vn 0.000001 0.029234 0.999573
vn -0.147315 0.740925 0.655232
vn 0.000001 0.572621 0.819820
vn 0.000001 0.029234 0.999573
vn -0.323785 0.192310 0.926380
vn 0.000001 0.210467 0.977601
vn 0.345296 0.455565 0.820507
vn 0.387291 0.119894 0.914129
vn 0.000001 0.185905 0.982568
vn -0.345296 0.455565 0.820507
vn 0.000001 0.210467 0.977601
vn 0.000001 0.185905 0.982568
vn -0.387292 0.119894 0.914128
vn 0.000001 0.572621 0.819820
vn 0.000001 0.185905 0.982568
vn 0.387291 0.119894 0.914129
vn 0.147314 0.740923 0.655234
vn -0.147315 0.740925 0.655232
vn -0.387292 0.119894 0.914128
vn 0.000001 0.185905 0.982568
vn 0.000001 0.572621 0.819820
vn 0.000001 0.210467 0.977601
vn 0.000000 0.304651 0.952464
vn 0.416702 0.227440 0.880131
vn 0.345296 0.455565 0.820507
vn -0.345296 0.455565 0.820507
vn -0.416702 0.227440 0.880131
vn 0.000000 0.304651 0.952464
vn 0.000001 0.210467 0.977601
vn 0.000000 0.304651 0.952464
vn 0.000000 0.000000 1.000000
vn 0.429659 0.000000 0.902991
vn 0.416702 0.227440 0.880131
vn -0.416702 0.227440 0.880131
vn -0.429659 0.000000 0.902991
vn 0.000000 0.000000 1.000000
vn 0.000000 0.304651 0.952464
vn -1.000000 0.000000 0.000000
vn -1.000000 0.000000 0.000000
vn -0.429659 0.000000 0.902991
vn -0.416702 0.227440 0.880131
vn 0.000000 1.000000 0.000000
vn 0.000000 1.000000 0.000000
vn -0.416702 0.227440 0.880131
vn -0.345296 0.455565 0.820507
vn -0.999897 -0.014360 0.000000
vn -0.999897 -0.014360 0.000000
vn -0.345296 0.455565 0.820507
vn -0.387292 0.119894 0.914128
vn 0.029818 0.999555 0.000000
vn 0.029818 0.999555 0.000000
vn -0.387292 0.119894 0.914128
vn -0.147315 0.740925 0.655232
vn -0.999897 -0.014361 0.000000
vn -0.999897 -0.014361 0.000000
vn -0.147315 0.740925 0.655232
vn -0.323785 0.192310 0.926380
vn -0.670619 0.741802 0.000000
vn -0.670619 0.741802 0.000000
vn -0.323785 0.192310 0.926380
vn -0.317069 0.041859 0.947478
vn -0.923879 -0.382684 0.000000
vn -0.923879 -0.382684 0.000000
vn -0.317069 0.041859 0.947478
vn -0.585856 -0.000001 0.810415
vn -0.923880 0.382683 0.000000
vn -0.923880 0.382683 0.000000
vn -0.585856 -0.000001 0.810415
vn -0.414262 0.414263 0.810416
vn -0.382683 0.923880 0.000000
vn -0.382683 0.923880 0.000000
vn -0.414262 0.414263 0.810416
vn -0.000001 0.585853 0.810417
vn 0.382680 0.923881 0.000000
vn 0.382680 0.923881 0.000000
vn -0.000001 0.585853 0.810417
vn 0.414260 0.414261 0.810418
vn 0.923881 0.382681 0.000000
vn 0.923881 0.382681 0.000000
vn 0.414260 0.414261 0.810418
vn 0.585851 -0.000002 0.810419
vn 0.923879 -0.382684 0.000000
vn 0.923879 -0.382684 0.000000
vn 0.585851 -0.000002 0.810419
vn 0.317067 0.041859 0.947479
vn 0.670616 0.741805 0.000000
vn 0.670616 0.741805 0.000000
vn 0.317067 0.041859 0.947479
vn 0.323781 0.192308 0.926382
vn 0.999897 -0.014359 0.000000
vn 0.999897 -0.014359 0.000000
vn 0.323781 0.192308 0.926382
vn 0.147314 0.740923 0.655234
vn -0.029818 0.999555 0.000000
vn -0.029818 0.999555 0.000000
vn 0.147314 0.740923 0.655234
vn 0.387291 0.119894 0.914129
vn 0.999897 -0.014360 0.000000
vn 0.999897 -0.014360 0.000000
vn 0.387291 0.119894 0.914129
vn 0.345296 0.455565 0.820507
vn 0.000000 1.000000 0.000000
vn 0.000000 1.000000 0.000000
vn 0.345296 0.455565 0.820507
vn 0.416702 0.227440 0.880131
vn 1.000000 0.000000 0.000000
vn 1.000000 0.000000 0.000000
vn 0.416702 0.227440 0.880131
vn 0.429659 0.000000 0.902991
vn 0.416700 0.227438 -0.880133
vn 1.000000 0.000000 0.000000
vn 1.000000 0.000000 0.000000
vn 0.429656 0.000000 -0.902993
vn 0.345298 0.455560 -0.820509
vn 0.000000 1.000000 0.000000
vn 0.000000 1.000000 0.000000
vn 0.416700 0.227438 -0.880133
vn 0.387292 0.119897 -0.914128
vn 0.999897 -0.014359 0.000000
vn 0.999897 -0.014359 0.000000
vn 0.345298 0.455560 -0.820509
vn 0.147316 0.740926 -0.655231
vn -0.029824 0.999555 -0.000002
vn -0.029824 0.999555 -0.000002
vn 0.387292 0.119897 -0.914128
vn 0.323783 0.192304 -0.926382
vn 0.999897 -0.014358 0.000000
vn 0.999897 -0.014358 0.000000
vn 0.147316 0.740926 -0.655231
vn 0.317070 0.041859 -0.947478
vn 0.670616 0.741805 0.000000
vn 0.670616 0.741805 0.000000
vn 0.323783 0.192304 -0.926382
vn 0.585852 -0.000002 -0.810418
vn 0.923879 -0.382684 0.000000
vn 0.923879 -0.382684 0.000000
vn 0.317070 0.041859 -0.947478
vn 0.414261 0.414261 -0.810417
vn 0.923881 0.382681 0.000000
vn 0.923881 0.382681 0.000000
vn 0.585852 -0.000002 -0.810418
vn 0.000002 0.585851 -0.810419
vn 0.382680 0.923881 0.000000
vn 0.382680 0.923881 0.000000
vn 0.414261 0.414261 -0.810417
vn -0.414256 0.414259 -0.810420
vn -0.382678 0.923882 0.000000
vn -0.382678 0.923882 0.000000
vn 0.000002 0.585851 -0.810419
vn -0.585847 -0.000001 -0.810422
vn -0.923880 0.382683 0.000000
vn -0.923880 0.382683 0.000000
vn -0.414256 0.414259 -0.810420
vn -0.317066 0.041859 -0.947479
vn -0.923879 -0.382685 0.000000
vn -0.923879 -0.382685 0.000000
vn -0.585847 -0.000001 -0.810422
vn -0.323780 0.192303 -0.926383
vn -0.670616 0.741805 0.000000
vn -0.670616 0.741805 0.000000
vn -0.317066 0.041859 -0.947479
vn -0.147314 0.740926 -0.655231
vn -0.999897 -0.014361 0.000000
vn -0.999897 -0.014361 0.000000
vn -0.323780 0.192303 -0.926383
vn -0.387293 0.119896 -0.914127
vn 0.029823 0.999555 -0.000002
vn 0.029823 0.999555 -0.000002
vn -0.147314 0.740926 -0.655231
vn -0.345298 0.455561 -0.820508
vn -0.999897 -0.014360 0.000000
vn -0.999897 -0.014360 0.000000
vn -0.387293 0.119896 -0.914127
vn -0.416699 0.227439 -0.880133
vn 0.000000 1.000000 0.000000
vn 0.000000 1.000000 0.000000
vn -0.345298 0.455561 -0.820508
vn -0.429656 0.000000 -0.902993
vn -1.000000 0.000000 0.000000
vn -1.000000 0.000000 0.000000
vn -0.416699 0.227439 -0.880133
s off
g Timao_Low:Suporte_Timao_Duplo group1
usemtl Timao_Low:initialShadingGroup
f 1/1/1 2/2/2 10/3/3 9/4/4
f 2/2/5 3/5/6 11/6/7 10/3/8
f 3/5/9 4/7/10 12/8/11 11/6/12
f 4/9/13 5/10/14 13/11/15 12/12/16
f 5/10/17 6/13/18 14/14/19 13/11/20
f 6/13/21 7/15/22 15/16/23 14/14/24
f 7/15/25 8/17/26 16/18/27 15/16/28
f 8/17/29 1/1/30 9/4/31 16/18/32
f 17/19/33 10/20/34 11/21/35 12/22/36
f 17/19/37 12/22/38 13/23/39 14/24/40
f 17/19/41 14/24/42 15/16/43 16/18/44
f 17/19/45 16/18/46 9/4/47 10/20/48
f 2/25/49 1/26/50 18/27/51 19/28/52
f 3/29/53 2/25/54 19/28/55 20/30/56
f 4/31/57 3/29/58 20/30/59 21/32/60
f 5/33/61 4/31/62 21/32/63 22/34/64
f 6/35/65 5/33/66 22/34/67 23/36/68
f 7/37/69 6/35/70 23/36/71 24/38/72
f 8/39/73 7/37/74 24/38/75 25/40/76
f 1/26/77 8/39/78 25/40/79 18/27/80
f 21/32/81 20/30/82 27/41/83 28/42/84
f 22/34/85 21/32/86 28/42/87 26/43/88
f 30/44/89 28/42/90 27/41/91 29/45/92
f 31/46/93 26/43/94 28/42/95 30/44/96
f 35/47/97 34/48/98 33/49/99 32/50/100
f 37/51/101 36/52/102 34/48/103 35/47/104
f 30/44/105 29/45/106 33/49/107 34/48/108
f 31/46/109 30/44/110 34/48/111 36/52/112
f 35/47/113 32/50/114 38/53/115 39/54/116
f 37/51/117 35/47/118 39/54/119 40/55/120
f 39/54/121 38/53/122 41/56/123 42/57/124
f 40/55/125 39/54/126 42/57/127 43/58/128
f 44/59/129 52/60/130 53/61/131 45/62/132
f 45/62/133 53/61/134 54/63/135 46/64/136
f 46/64/137 54/63/138 55/65/139 47/66/140
f 47/67/141 55/68/142 56/69/143 48/70/144
f 48/70/145 56/69/146 57/71/147 49/72/148
f 49/72/149 57/71/150 58/73/151 50/74/152
f 50/74/153 58/73/154 59/75/155 51/76/156
f 51/76/157 59/75/158 52/60/159 44/59/160
f 60/77/161 55/78/162 54/79/163 53/80/164
f 60/77/165 57/81/166 56/82/167 55/78/168
f 60/77/169 59/75/170 58/73/171 57/81/172
f 60/77/173 53/80/174 52/60/175 59/75/176
f 45/83/177 62/84/178 61/85/179 44/86/180
f 46/87/181 63/88/182 62/84/183 45/83/184
f 47/89/185 64/90/186 63/88/187 46/87/188
f 48/91/189 65/92/190 64/90/191 47/89/192
f 49/93/193 66/94/194 65/92/195 48/91/196
f 50/95/197 67/96/198 66/94/199 49/93/200
f 51/97/201 68/98/202 67/96/203 50/95/204
f 44/86/205 61/85/206 68/98/207 51/97/208
f 64/90/209 71/99/210 70/100/211 63/88/212
f 65/92/213 69/101/214 71/99/215 64/90/216
f 73/102/217 72/103/218 70/100/219 71/99/220
f 74/104/221 73/102/222 71/99/223 69/101/224
f 78/105/225 75/106/226 76/107/227 77/108/228
f 80/109/229 78/105/230 77/108/231 79/110/232
f 73/102/233 77/108/234 76/107/235 72/103/236
f 74/104/237 79/110/238 77/108/239 73/102/240
f 78/105/241 82/111/242 81/112/243 75/106/244
f 80/109/245 83/113/246 82/111/247 78/105/248
f 82/111/249 85/114/250 84/115/251 81/112/252
f 83/113/253 86/116/254 85/114/255 82/111/256
f 104/117/257 105/118/258 86/116/259 83/113/260
f 103/119/261 104/117/262 83/113/263 80/109/264
f 102/120/265 103/119/266 80/109/267 79/110/268
f 101/121/269 102/120/270 79/110/271 74/104/272
f 100/122/273 101/121/274 74/104/275 69/101/276
f 99/123/277 100/122/278 69/101/279 65/92/280
f 98/124/281 99/123/282 65/92/283 66/94/284
f 97/125/285 98/124/286 66/94/287 67/96/288
f 96/126/289 97/125/290 67/96/291 68/98/292
f 95/127/293 96/126/294 68/98/295 61/85/296
f 94/128/297 95/127/298 61/85/299 62/84/300
f 93/129/301 94/128/302 62/84/303 63/88/304
f 92/130/305 93/129/306 63/88/307 70/100/308
f 91/131/309 92/130/310 70/100/311 72/103/312
f 90/132/313 91/131/314 72/103/315 76/107/316
f 89/133/317 90/132/318 76/107/319 75/106/320
f 88/134/321 89/133/322 75/106/323 81/112/324
f 87/135/325 88/134/326 81/112/327 84/115/328
f 38/53/329 88/136/330 87/137/331 41/56/332
f 32/50/333 89/138/334 88/136/335 38/53/336
f 33/49/337 90/139/338 89/138/339 32/50/340
f 29/45/341 91/140/342 90/139/343 33/49/344
f 27/41/345 92/141/346 91/140/347 29/45/348
f 20/30/349 93/142/350 92/141/351 27/41/352
f 19/28/353 94/143/354 93/142/355 20/30/356
f 18/27/357 95/144/358 94/143/359 19/28/360
f 25/40/361 96/145/362 95/144/363 18/27/364
f 24/38/365 97/146/366 96/145/367 25/40/368
f 23/36/369 98/147/370 97/146/371 24/38/372
f 22/34/373 99/148/374 98/147/375 23/36/376
f 26/43/377 100/149/378 99/148/379 22/34/380
f 31/46/381 101/150/382 100/149/383 26/43/384
f 36/52/385 102/151/386 101/150/387 31/46/388
f 37/51/389 103/152/390 102/151/391 36/52/392
f 40/55/393 104/153/394 103/152/395 37/51/396
f 43/58/397 105/154/398 104/153/399 40/55/400
