# This file uses centimeters as units for non-parametric coordinates.

mtllib Rocha6.mtl
g default
v 4.346894 -1.212718 1.075233
v 6.989907 -1.212718 1.075233
v 4.346894 1.978073 0.951556
v 6.989907 1.540085 1.003602
v 4.346894 1.978073 -0.951556
v 6.989907 1.540085 -1.003602
v 4.346894 -1.212718 -1.075233
v 6.989907 -1.212718 -1.075233
v 4.577908 5.118565 0.764912
v 6.758893 4.583970 0.827327
v 6.758893 4.583970 -0.827327
v 4.577908 5.118565 -0.764912
v 4.910446 6.543485 0.642296
v 6.426355 6.855954 0.620931
v 6.426355 6.855954 -0.620931
v 4.910446 6.543485 -0.642296
vt 0.769177 0.020299
vt 0.857271 0.020299
vt 0.854337 0.101730
vt 0.772112 0.101730
vt 0.847116 0.191771
vt 0.779333 0.191771
vt 0.838661 0.258978
vt 0.787788 0.258978
vt 0.769177 0.413190
vt 0.857388 0.413190
vt 0.852315 0.507702
vt 0.774251 0.507702
vt 0.844659 0.600725
vt 0.781907 0.600725
vt 0.839630 0.642931
vt 0.786936 0.642931
vt 0.020335 0.231330
vt 0.021212 0.169098
vt 0.072194 0.169098
vt 0.073071 0.231330
vt 0.769177 0.971187
vt 0.769177 0.863277
vt 0.856978 0.863277
vt 0.856978 0.971187
vt 0.584680 0.020299
vt 0.692762 0.020299
vt 0.692762 0.101588
vt 0.584680 0.114522
vt 0.683315 0.191473
vt 0.594127 0.207259
vt 0.669717 0.258563
vt 0.607726 0.249336
vt 0.226538 0.509040
vt 0.334620 0.521973
vt 0.334620 0.603262
vt 0.226538 0.603262
vt 0.235985 0.416303
vt 0.325173 0.432089
vt 0.249583 0.374225
vt 0.311574 0.364998
vn -0.550947 -0.474312 0.686648
vn 0.501626 -0.491672 0.711780
vn 0.594687 0.056960 0.801937
vn -0.626816 0.055508 0.777188
vn -0.440873 0.479794 0.758570
vn 0.572535 0.505937 0.645160
vn 0.572535 0.505937 -0.645160
vn -0.440873 0.479794 -0.758570
vn -0.626816 0.055508 -0.777188
vn 0.594687 0.056960 -0.801937
vn 0.501626 -0.491672 -0.711780
vn -0.550947 -0.474312 -0.686648
vn 0.606043 0.113046 0.787358
vn -0.593900 0.120294 0.795495
vn 0.606043 0.113046 -0.787358
vn -0.593900 0.120294 -0.795495
s 1
g Rocha2
usemtl initialShadingGroup
f 1/25/1 2/26/2 4/27/3 3/28/4
f 13/17/5 14/18/6 15/19/7 16/20/8
f 5/33/9 6/34/10 8/35/11 7/36/12
f 7/21/12 8/22/11 2/23/2 1/24/1
f 2/1/2 8/2/11 6/3/10 4/4/3
f 7/9/12 1/10/1 3/11/4 5/12/9
f 3/28/4 4/27/3 10/29/13 9/30/14
f 4/4/3 6/3/10 11/5/15 10/6/13
f 6/34/10 5/33/9 12/37/16 11/38/15
f 5/12/9 3/11/4 9/13/14 12/14/16
f 9/30/14 10/29/13 14/31/6 13/32/5
f 10/6/13 11/5/15 15/7/7 14/8/6
f 11/38/15 12/37/16 16/39/8 15/40/7
f 12/14/16 9/13/14 13/15/5 16/16/8
