# This file uses centimeters as units for non-parametric coordinates.

mtllib Rocha3.mtl
g default
v -11.092836 -0.875709 -3.295119
v -4.676241 -0.875709 -2.580563
v -11.243782 0.875710 -3.574325
v -4.676241 0.875710 -2.764393
v -11.459140 0.875710 -7.782015
v -4.424127 0.875710 -9.769210
v -11.459140 -0.875709 -8.099414
v -4.482262 -0.875709 -9.943607
v -10.950057 1.623519 -4.277637
v -5.301096 1.623519 -3.464406
v -4.843498 1.623519 -9.152553
v -10.866276 1.623519 -7.303020
v -10.348993 2.110148 -4.960313
v -6.221781 2.335783 -4.514827
v -5.485598 2.335783 -8.380168
v -10.012867 2.110148 -6.988346
v -7.655389 2.227643 -9.336455
v -7.730043 1.623519 -9.889472
v -7.795807 0.875710 -10.440152
v -7.826080 -0.875709 -10.683086
v -8.069037 -0.875709 -2.022774
v -8.141381 0.875710 -2.252315
v -8.325987 1.623519 -2.953909
v -8.517342 2.227643 -3.828080
vt 0.335066 0.677859
vt 0.335066 0.356784
vt 0.411439 0.364389
vt 0.411439 0.669843
vt 0.444048 0.391279
vt 0.444048 0.639318
vt 0.475107 0.424960
vt 0.475107 0.593513
vt 0.020335 0.539013
vt 0.020335 0.315942
vt 0.101656 0.328906
vt 0.101656 0.524276
vt 0.136378 0.361562
vt 0.136378 0.502035
vt 0.101656 0.647697
vt 0.020335 0.658977
vt 0.158973 0.393259
vt 0.158973 0.487424
vt 0.070003 0.141457
vt 0.151953 0.090800
vt 0.190517 0.337249
vt 0.085042 0.232193
vt 0.043111 0.110914
vt 0.160514 0.051689
vt 0.254658 0.121526
vt 0.287595 0.294464
vt 0.187177 0.361991
vt 0.046860 0.246271
vt 0.029970 0.079447
vt 0.168773 0.020299
vt 0.295850 0.074529
vt 0.316323 0.329021
vt 0.184235 0.386629
vt 0.020335 0.267702
vt 0.323806 0.043210
vt 0.335086 0.356610
vt 0.298890 0.125787
vt 0.447222 0.020299
vt 0.437302 0.373886
vt 0.313845 0.321939
vt 0.583745 0.050491
vt 0.575825 0.351113
vt 0.230155 0.872209
vt 0.230155 0.745469
vt 0.303565 0.748501
vt 0.303565 0.878535
vt 0.230155 0.603262
vt 0.303565 0.603262
vt 0.932134 0.545800
vt 0.859617 0.544546
vt 0.859617 0.404944
vt 0.932134 0.407352
vn -0.307558 -0.929636 0.202943
vn -0.029097 -0.962108 0.271113
vn -0.106938 0.328586 0.938400
vn -0.848884 0.203502 0.487836
vn -0.219311 0.972852 0.073909
vn -0.067867 0.981944 0.176578
vn -0.093807 0.969098 -0.228143
vn -0.216144 0.969196 -0.118067
vn -0.888631 0.213988 -0.405640
vn -0.253140 0.307276 -0.917334
vn -0.085645 -0.944672 -0.316639
vn -0.367826 -0.908835 -0.196783
vn 0.385191 -0.901934 0.195300
vn 0.395687 -0.901943 -0.173004
vn 0.910280 0.204593 -0.359904
vn 0.882909 0.218092 0.415821
vn -0.085224 0.768079 0.634659
vn -0.626476 0.712255 0.316576
vn 0.655263 0.718798 -0.232293
vn 0.579402 0.752920 0.312098
vn -0.648381 0.687249 -0.327554
vn -0.194216 0.713898 -0.672777
vn 0.247968 0.966567 -0.065268
vn 0.190845 0.974894 0.114718
s 1
g Rocha6
usemtl initialShadingGroup
f 1/43/1 21/44/2 22/45/3 3/46/4
f 13/19/5 24/20/6 17/21/7 16/22/8
f 5/12/9 19/15/10 20/16/11 7/9/12
f 7/37/12 20/38/11 21/39/2 1/40/1
f 2/1/13 8/2/14 6/3/15 4/4/16
f 7/9/12 1/10/1 3/11/4 5/12/9
f 3/29/4 22/30/3 23/24/17 9/23/18
f 4/4/16 6/3/15 11/5/19 10/6/20
f 19/33/10 5/34/9 12/28/21 18/27/22
f 5/12/9 3/11/4 9/13/18 12/14/21
f 9/23/18 23/24/17 24/20/6 13/19/5
f 10/6/20 11/5/19 15/7/23 14/8/24
f 18/27/22 12/28/21 16/22/8 17/21/7
f 12/14/21 9/13/18 13/17/5 16/18/8
f 11/32/19 18/27/22 17/21/7 15/26/23
f 6/36/15 19/33/10 18/27/22 11/32/19
f 20/49/11 19/50/10 6/51/15 8/52/14
f 21/39/2 20/38/11 8/41/14 2/42/13
f 22/45/3 21/44/2 2/47/13 4/48/16
f 23/24/17 22/30/3 4/35/16 10/31/20
f 24/20/6 23/24/17 10/31/20 14/25/24
f 17/21/7 24/20/6 14/25/24 15/26/23
