# This file uses centimeters as units for non-parametric coordinates.

mtllib Rocha5.mtl
g default
v -1.123818 -0.875710 -2.975573
v 2.361468 -0.854921 -2.975573
v -1.123818 1.428376 -3.151702
v 1.957038 1.091315 -3.077583
v -1.123818 1.428376 -5.861928
v 1.519195 1.124629 -6.345306
v -1.123818 -0.875710 -6.038058
v 1.519195 -0.705711 -7.127395
v -0.892804 3.338932 -3.417502
v 1.288181 3.264220 -3.328617
v 1.288181 3.264220 -5.685014
v -0.892804 3.338932 -5.596129
v -0.560266 3.885362 -3.592119
v 0.955643 4.110997 -3.622545
v 0.955643 4.110997 -5.391085
v -0.560266 3.885362 -5.421511
v -1.123818 1.428376 -5.360712
v -1.123818 -0.875710 -5.471696
v 1.519195 -0.901264 -6.595864
v 1.519195 0.942104 -5.849187
v 1.288181 3.264220 -5.249233
v 0.955643 4.110997 -5.064020
v -0.560266 3.885362 -5.083192
v -0.892804 3.338932 -5.193224
v -1.123818 1.428376 -3.487648
v -1.123818 -0.875710 -3.355183
v 2.361468 -0.854921 -3.355183
v 1.957038 1.091315 -3.431904
v 1.288181 3.264219 -3.620704
v 0.955643 4.110997 -3.841765
v -0.560266 3.885362 -3.818881
v -0.892804 3.338932 -3.687553
v -0.971410 2.688841 -5.250214
v -0.971410 2.688841 -3.619533
v -0.971409 2.688841 -3.327060
v 1.393510 2.524536 -3.243199
v 1.393882 2.524410 -3.556462
v 1.366786 2.531934 -5.303057
v 1.366786 2.531934 -5.770430
v -0.971409 2.688841 -5.686570
v -2.657225 -0.854694 -5.471696
v -2.657225 -0.854694 -3.355183
v -2.219134 1.407360 -3.487648
v -2.219134 1.407360 -5.360712
v -1.679504 2.448439 -5.250214
v -1.679504 2.448439 -3.619533
vt 0.476152 0.558873
vt 0.487297 0.558873
vt 0.489549 0.640241
vt 0.479147 0.640241
vt 0.582435 0.556935
vt 0.560514 0.634003
vt 0.493206 0.700157
vt 0.484009 0.700162
vt 0.598040 0.565111
vt 0.575079 0.641634
vt 0.544481 0.700471
vt 0.495092 0.731087
vt 0.486517 0.731087
vt 0.558202 0.700471
vt 0.542901 0.731087
vt 0.501581 0.766489
vt 0.495146 0.766489
vt 0.555695 0.731087
vt 0.537464 0.766489
vt 0.547066 0.766489
vt 0.395285 0.671782
vt 0.406366 0.671782
vt 0.401225 0.767556
vt 0.391419 0.767556
vt 0.396106 0.819949
vt 0.387570 0.819949
vt 0.385584 0.846971
vt 0.393466 0.846971
vt 0.341637 0.846971
vt 0.339973 0.819949
vt 0.388370 0.869685
vt 0.381751 0.869685
vt 0.327237 0.819949
vt 0.329877 0.846971
vt 0.344848 0.869685
vt 0.322119 0.767556
vt 0.336748 0.767556
vt 0.334973 0.869685
vt 0.316978 0.671782
vt 0.333509 0.671782
vt 0.917499 0.067266
vt 0.979665 0.067266
vt 0.975775 0.161885
vt 0.920759 0.161885
vt 0.924004 0.205432
vt 0.971901 0.205432
vt 0.917499 0.384190
vt 0.918376 0.321958
vt 0.924696 0.321958
vt 0.924036 0.384190
vt 0.959929 0.321958
vt 0.960482 0.384190
vt 0.969358 0.321958
vt 0.970235 0.384190
vt 0.754679 0.582165
vt 0.754679 0.439403
vt 0.765598 0.439403
vt 0.765598 0.582165
vt 0.693802 0.582165
vt 0.661468 0.473904
vt 0.677512 0.582165
vt 0.646179 0.473904
vt 0.754679 0.644976
vt 0.693802 0.644976
vt 0.050044 0.020299
vt 0.050044 0.068343
vt 0.020335 0.068343
vt 0.020335 0.020299
vt 0.534034 0.357981
vt 0.676672 0.358832
vt 0.660120 0.438483
vt 0.534034 0.452278
vt 0.637057 0.497139
vt 0.540271 0.503863
vt 0.632747 0.527411
vt 0.543488 0.530469
vt 0.619137 0.562066
vt 0.557097 0.552832
vt 0.118010 0.602049
vt 0.227617 0.614645
vt 0.227617 0.690550
vt 0.118010 0.697600
vt 0.124330 0.549777
vt 0.221296 0.556284
vt 0.127590 0.522817
vt 0.218036 0.525915
vt 0.141381 0.500156
vt 0.204246 0.490799
vt 0.669041 0.772334
vt 0.669041 0.866479
vt 0.624286 0.865620
vt 0.606386 0.773193
vt 0.675268 0.917981
vt 0.646335 0.908158
vt 0.752231 0.071790
vt 0.752231 0.165913
vt 0.689590 0.165055
vt 0.707487 0.072648
vt 0.758457 0.020299
vt 0.729531 0.030120
vn -0.120267 -0.124652 0.984885
vn 0.106655 -0.127731 0.986058
vn 0.098028 0.107709 0.989338
vn -0.131614 0.089156 0.987284
vn -0.119888 0.490170 0.863343
vn 0.087849 0.534084 0.840855
vn 0.389280 0.921120 0.000000
vn -0.416571 0.909103 0.000000
vn -0.383093 0.231974 -0.894107
vn -0.017526 0.249295 -0.968269
vn -0.072648 0.009876 -0.997309
vn -0.447419 -0.076605 -0.891037
vn -0.066195 -0.970853 0.230355
vn 0.635546 -0.762331 -0.122198
vn 0.967984 0.191931 -0.161773
vn -0.291329 0.082837 0.953030
vn -0.131819 0.135615 0.981953
vn 0.096398 0.159368 0.982502
vn 0.120215 0.231097 0.965475
vn -0.148257 0.227745 0.962368
vn 0.971442 0.224821 -0.075867
vn 0.969829 0.243762 -0.003392
vn 0.161134 0.251601 -0.954323
vn -0.234919 0.240818 -0.941711
vn -0.204914 0.243585 -0.947986
vn 0.193809 0.244470 -0.950091
vn -0.953202 0.302334 0.000000
vn -0.773669 0.567122 0.282504
vn -0.157205 0.556222 -0.816029
vn 0.133030 0.610630 -0.780663
vn -0.091869 -0.973131 -0.211132
vn -0.411674 0.073393 -0.908371
vn 0.468837 -0.876345 -0.110507
vn 0.975716 0.148903 -0.160644
vn 0.970051 0.242881 -0.003158
vn 0.977986 0.195710 -0.072401
vn 0.382292 0.924041 0.000000
vn -0.412960 0.910749 -0.000000
vn -0.952234 0.305369 -0.000000
vn -0.810828 0.525442 -0.257816
vn -0.787316 -0.399159 -0.469900
vn -0.787234 -0.397010 0.471853
vn -0.812140 0.264210 0.520214
vn -0.813014 0.259477 -0.521229
vn -0.645583 0.638885 -0.418388
vn -0.644493 0.642759 0.414113
s 1
g Rocha4
usemtl initialShadingGroup
f 1/69/1 2/70/2 4/71/3 3/72/4
f 13/47/5 14/48/6 30/49/7 31/50/8
f 5/79/9 6/80/10 8/81/11 7/82/12
f 26/55/13 27/56/14 2/57/2 1/58/1
f 2/1/2 27/2/14 28/3/15 4/4/3
f 26/21/13 1/22/1 3/23/4 25/24/16
f 35/74/17 36/73/18 10/75/19 9/76/20
f 36/8/18 37/7/21 29/12/22 10/13/19
f 39/84/23 40/83/24 12/85/25 11/86/26
f 32/27/27 34/26/28 35/25/17 9/28/20
f 9/76/20 10/75/19 14/77/6 13/78/5
f 10/13/19 29/12/22 30/16/7 14/17/6
f 11/86/26 12/85/25 16/87/29 15/88/30
f 32/27/27 9/28/20 13/31/5 31/32/8
f 7/39/12 18/40/31 17/37/32 5/36/9
f 7/61/12 8/62/11 19/60/33 18/59/31
f 20/6/34 19/5/33 8/9/11 6/10/10
f 21/15/35 38/11/36 39/14/23 11/18/26
f 22/19/37 21/15/35 11/18/26 15/20/30
f 23/52/38 22/51/37 15/53/30 16/54/29
f 12/34/25 24/29/39 23/35/38 16/38/29
f 40/33/24 33/30/40 24/29/39 12/34/25
f 41/41/41 42/42/42 43/43/43 44/44/44
f 18/59/31 19/60/33 27/56/14 26/55/13
f 28/3/15 27/2/14 19/5/33 20/6/34
f 29/12/22 37/7/21 38/11/36 21/15/35
f 30/16/7 29/12/22 21/15/35 22/19/37
f 31/50/8 30/49/7 22/51/37 23/52/38
f 24/29/39 32/27/27 31/32/8 23/35/38
f 24/29/39 33/30/40 34/26/28 32/27/27
f 45/45/45 44/44/44 43/43/43 46/46/46
f 35/25/17 34/26/28 25/24/16 3/23/4
f 3/72/4 4/71/3 36/73/18 35/74/17
f 4/4/3 28/3/15 37/7/21 36/8/18
f 38/11/36 37/7/21 28/3/15 20/6/34
f 39/14/23 38/11/36 20/6/34 6/10/10
f 6/80/10 5/79/9 40/83/24 39/84/23
f 5/36/9 17/37/32 33/30/40 40/33/24
f 18/59/31 26/55/13 42/63/42 41/64/41
f 26/89/13 25/90/16 43/91/43 42/92/42
f 17/95/32 18/96/31 41/97/41 44/98/44
f 33/99/40 17/95/32 44/98/44 45/100/45
f 25/90/16 34/93/28 46/94/46 43/91/43
f 34/65/28 33/66/40 45/67/45 46/68/46
