# This file uses centimeters as units for non-parametric coordinates.

mtllib Rocha1.mtl
g default
v -6.897632 -0.365236 5.100872
v -5.502888 -0.365236 5.100872
v -6.897632 -0.365236 3.580762
v -5.502888 -0.365236 3.580762
v -6.752002 3.580995 4.741452
v -5.648518 3.801007 4.728125
v -5.648518 3.801007 3.953509
v -6.752002 3.580995 3.940182
vt 0.877705 0.718772
vt 0.939807 0.718772
vt 0.925123 0.879988
vt 0.892389 0.879988
vt 0.921715 0.020299
vt 0.906488 0.190494
vt 0.874844 0.190494
vt 0.859617 0.020299
vt 0.783648 0.319659
vt 0.784195 0.258978
vt 0.815995 0.258978
vt 0.816542 0.319659
vt 0.917499 0.321958
vt 0.917499 0.245679
vt 0.979563 0.245679
vt 0.979563 0.321958
vt 0.187209 0.864321
vt 0.110775 0.864321
vt 0.118755 0.702875
vt 0.179228 0.693874
vt 0.917963 0.236061
vt 0.909983 0.406508
vt 0.849510 0.397507
vt 0.841529 0.236061
vn -0.648193 0.200688 0.734554
vn 0.699851 0.212739 0.681873
vn 0.699851 0.212739 -0.681873
vn -0.648193 0.200688 -0.734554
vn 0.657978 -0.222274 -0.719485
vn -0.644345 -0.225954 -0.730591
vn 0.657978 -0.222274 0.719485
vn -0.644345 -0.225954 0.730591
s 1
g Rocha7
usemtl initialShadingGroup
f 5/9/1 6/10/2 7/11/3 8/12/4
f 4/17/5 3/18/6 8/19/4 7/20/3
f 3/13/6 4/14/5 2/15/7 1/16/8
f 3/1/6 1/2/8 5/3/1 8/4/4
f 2/21/7 6/22/2 5/23/1 1/24/8
f 4/5/5 7/6/3 6/7/2 2/8/7
