# This file uses centimeters as units for non-parametric coordinates.

mtllib Rocha7.mtl
g default
v 4.835106 -0.846682 -2.975573
v 7.478119 -0.846682 -2.975573
v 4.835106 1.381029 -3.151701
v 7.478119 1.075239 -3.077583
v 4.835106 1.381029 -5.861928
v 7.478119 1.075239 -5.936047
v 4.835106 -0.846682 -6.038057
v 7.478119 -0.846682 -6.038057
v 5.066120 3.228254 -3.417501
v 7.247105 3.156018 -3.328617
v 7.247105 3.156018 -5.685013
v 5.066120 3.228254 -5.596128
v 5.398658 3.756571 -3.592119
v 6.914567 3.974727 -3.622545
v 6.914567 3.974727 -5.391085
v 5.398658 3.756571 -5.421511
vt 0.027570 0.657972
vt 0.115906 0.657972
vt 0.112963 0.739626
vt 0.030512 0.739626
vt 0.105722 0.828030
vt 0.037753 0.828030
vt 0.097244 0.862813
vt 0.046231 0.862813
vt 0.689590 0.644976
vt 0.778168 0.644976
vt 0.773074 0.739882
vt 0.694685 0.739882
vt 0.765386 0.818577
vt 0.702372 0.818577
vt 0.760335 0.841085
vt 0.707423 0.841085
vt 0.479770 0.429135
vt 0.480647 0.366902
vt 0.531628 0.366902
vt 0.532506 0.429135
vt 0.678738 0.948995
vt 0.678738 0.841085
vt 0.766538 0.841085
vt 0.766538 0.948995
vt 0.675120 0.231836
vt 0.783314 0.231836
vt 0.783314 0.313209
vt 0.675120 0.326156
vt 0.773858 0.401308
vt 0.684577 0.404367
vt 0.760245 0.435972
vt 0.698190 0.426735
vt 0.581062 0.678014
vt 0.689257 0.690961
vt 0.689257 0.772334
vt 0.581062 0.772334
vt 0.590519 0.599803
vt 0.679800 0.602862
vt 0.604132 0.577435
vt 0.666187 0.568198
vn -0.551620 -0.680196 0.482751
vn 0.502285 -0.705156 0.500466
vn 0.731808 0.101549 0.673903
vn -0.744214 0.100556 0.660329
vn -0.343901 0.859874 0.377292
vn 0.329599 0.890581 0.313415
vn 0.329599 0.890581 -0.313415
vn -0.343901 0.859874 -0.377292
vn -0.744214 0.100556 -0.660329
vn 0.731808 0.101549 -0.673903
vn 0.502285 -0.705156 -0.500466
vn -0.551620 -0.680196 -0.482751
vn 0.733833 0.232893 0.638161
vn -0.686259 0.250092 0.683010
vn 0.733833 0.232893 -0.638161
vn -0.686259 0.250092 -0.683010
s 1
g Rocha3
usemtl initialShadingGroup
f 1/25/1 2/26/2 4/27/3 3/28/4
f 13/17/5 14/18/6 15/19/7 16/20/8
f 5/33/9 6/34/10 8/35/11 7/36/12
f 7/21/12 8/22/11 2/23/2 1/24/1
f 2/1/2 8/2/11 6/3/10 4/4/3
f 7/9/12 1/10/1 3/11/4 5/12/9
f 3/28/4 4/27/3 10/29/13 9/30/14
f 4/4/3 6/3/10 11/5/15 10/6/13
f 6/34/10 5/33/9 12/37/16 11/38/15
f 5/12/9 3/11/4 9/13/14 12/14/16
f 9/30/14 10/29/13 14/31/6 13/32/5
f 10/6/13 11/5/15 15/7/7 14/8/6
f 11/38/15 12/37/16 16/39/8 15/40/7
f 12/14/16 9/13/14 13/15/5 16/16/8
